<?xml version="1.0" encoding="utf-8"?>
<!-- Generator: Adobe Illustrator 23.0.1, SVG Export Plug-In . SVG Version: 6.00 Build 0)  -->
<svg version="1.1" id="Layer_1" xmlns="http://www.w3.org/2000/svg" xmlns:xlink="http://www.w3.org/1999/xlink" x="0px" y="0px"
	 viewBox="0 0 100 100" style="enable-background:new 0 0 100 100;" xml:space="preserve">
<path d="M69.5,59.6l18.4-18.4c8.2-8.2,8.2-21.5,0-29.7c-8.2-8.2-21.5-8.2-29.7,0L39.8,29.9c-1.7,1.7-3.1,3.7-4.1,5.8
	c-2.1,1-4.1,2.3-5.8,4.1L11.5,58.1c-4,4-6.2,9.2-6.2,14.8c0,5.6,2.2,10.9,6.2,14.8C15.6,91.9,21,94,26.3,94s10.8-2,14.8-6.1
	l18.4-18.4c1.7-1.7,3.1-3.7,4.1-5.8C65.8,62.6,67.7,61.3,69.5,59.6z M42.6,32.7L61,14.3c6.6-6.6,17.4-6.6,24,0
	c6.6,6.6,6.6,17.4,0,24L66.6,56.7c-6.6,6.6-17.4,6.6-24,0c-1.2-1.2-2.2-2.6-3-4.1l1.6-1.6c0.9-0.9,2.2-1.5,3.5-1.5s2.6,0.5,3.5,1.5
	c1.8,1.8,4.1,2.6,6.4,2.6c2.3,0,4.6-0.9,6.4-2.6l2.6-2.6c0,0,0,0,0,0l15.7-15.7c3.5-3.5,3.5-9.2,0-12.7c-1.7-1.7-4-2.6-6.4-2.6
	c-2.4,0-4.7,0.9-6.4,2.6L51.7,34.9c-3.3-1.2-6.8-1.5-10.2-1C41.8,33.5,42.2,33.1,42.6,32.7z M36.7,55.6c0.9,1.4,1.9,2.8,3.1,4
	c1.2,1.2,2.6,2.2,4,3.1L29.9,76.5c-2,1.9-5.1,1.9-7.1,0c-0.9-0.9-1.5-2.2-1.5-3.5c0-1.3,0.5-2.6,1.5-3.5L36.7,55.6z M62.7,43.7
	c-0.9-1.4-1.9-2.8-3.1-4c-1.2-1.2-2.6-2.2-4-3.1l13.9-13.9c0.9-0.9,2.2-1.5,3.5-1.5c1.3,0,2.6,0.5,3.5,1.5c1.9,1.9,1.9,5.1,0,7.1
	L62.7,43.7z M56.7,66.6L38.4,85c-6.6,6.6-17.4,6.6-24,0c-6.6-6.6-6.6-17.4,0-24l18.4-18.4c6.6-6.6,17.4-6.6,24,0
	c1.2,1.2,2.2,2.6,3,4.1l-1.6,1.6c-0.9,0.9-2.2,1.5-3.5,1.5c-1.3,0-2.6-0.5-3.5-1.5c-1.7-1.7-4-2.6-6.4-2.6c-2.4,0-4.7,0.9-6.4,2.6
	L20,66.6c-1.7,1.7-2.6,4-2.6,6.4c0,2.4,0.9,4.7,2.6,6.4c1.8,1.8,4.1,2.6,6.4,2.6c2.3,0,4.6-0.9,6.4-2.6l14.9-14.9
	c2.3,0.8,4.6,1.2,7,1.2c1.1,0,2.1-0.1,3.2-0.3C57.5,65.8,57.1,66.2,56.7,66.6z M78.7,62.7c-8.8,0-16,7.2-16,16s7.2,16,16,16
	s16-7.2,16-16S87.5,62.7,78.7,62.7z M78.7,90.7c-6.6,0-12-5.4-12-12s5.4-12,12-12s12,5.4,12,12S85.3,90.7,78.7,90.7z M84.7,78.7
	c0,1.1-0.9,2-2,2h-2v2c0,1.1-0.9,2-2,2s-2-0.9-2-2v-2h-2c-1.1,0-2-0.9-2-2s0.9-2,2-2h2v-2c0-1.1,0.9-2,2-2s2,0.9,2,2v2h2
	C83.8,76.7,84.7,77.6,84.7,78.7z"/>
</svg>
