<?xml version="1.0" encoding="utf-8"?>
<svg version="1.1" id="Layer_1" x="0px" y="0px" viewBox="0 0 100 100" style="enable-background:new 0 0 100 100;" xmlns="http://www.w3.org/2000/svg">
  <path d="M59.4,40.9C63.4,38,66,33.3,66,28c0-8.8-7.2-16-16-16s-16,7.2-16,16c0,5.3,2.6,10,6.6,12.9C30.4,43.7,23,53,23,64v22 c0,1.1,0.9,2,2,2h50c1.1,0,2-0.9,2-2V64C77,53,69.6,43.7,59.4,40.9z M38,28c0-6.6,5.4-12,12-12c6.6,0,12,5.4,12,12s-5.4,12-12,12 C43.4,40,38,34.6,38,28z M73,84H27V64c0-11,9-20,20-20h6c11,0,20,9,20,20V84z" style="fill: rgb(255, 255, 255);"/>
</svg>