<?xml version="1.0" standalone="no"?><svg xmlns="http://www.w3.org/2000/svg" viewBox="0 0 1440 320"><path fill="#000000" fill-opacity="1" d="M0,96L24,80C48,64,96,32,144,21.3C192,11,240,21,288,53.3C336,85,384,139,432,144C480,149,528,107,576,90.7C624,75,672,85,720,117.3C768,149,816,203,864,197.3C912,192,960,128,1008,90.7C1056,53,1104,43,1152,64C1200,85,1248,139,1296,181.3C1344,224,1392,256,1416,272L1440,288L1440,320L1416,320C1392,320,1344,320,1296,320C1248,320,1200,320,1152,320C1104,320,1056,320,1008,320C960,320,912,320,864,320C816,320,768,320,720,320C672,320,624,320,576,320C528,320,480,320,432,320C384,320,336,320,288,320C240,320,192,320,144,320C96,320,48,320,24,320L0,320Z"></path></svg>