<?xml version="1.0" standalone="no"?><svg xmlns="http://www.w3.org/2000/svg" viewBox="0 0 1440 320"><path fill="#000000" fill-opacity="1" d="M0,32L0,288L80,288L80,128L160,128L160,160L240,160L240,64L320,64L320,288L400,288L400,256L480,256L480,64L560,64L560,32L640,32L640,224L720,224L720,32L800,32L800,128L880,128L880,192L960,192L960,96L1040,96L1040,224L1120,224L1120,32L1200,32L1200,96L1280,96L1280,64L1360,64L1360,192L1440,192L1440,0L1360,0L1360,0L1280,0L1280,0L1200,0L1200,0L1120,0L1120,0L1040,0L1040,0L960,0L960,0L880,0L880,0L800,0L800,0L720,0L720,0L640,0L640,0L560,0L560,0L480,0L480,0L400,0L400,0L320,0L320,0L240,0L240,0L160,0L160,0L80,0L80,0L0,0L0,0Z"></path></svg>