<?xml version="1.0" encoding="utf-8"?>
<!-- Generator: Adobe Illustrator 21.0.2, SVG Export Plug-In . SVG Version: 6.00 Build 0)  -->
<svg version="1.1" id="Layer_1" xmlns="http://www.w3.org/2000/svg" xmlns:xlink="http://www.w3.org/1999/xlink" x="0px" y="0px"
	 viewBox="0 0 100 100" style="enable-background:new 0 0 100 100;" xml:space="preserve">
<path d="M92,6H64H36H8C6.9,6,6,6.9,6,8v28v28v28c0,1.1,0.9,2,2,2h28h28h28c1.1,0,2-0.9,2-2V8C94,6.9,93.1,6,92,6z M66,26h24v36H66
	V26z M90,22H66V10h24V22z M62,54H38V36V10h24V54z M10,38h24v24H10V38z M10,10h24v24H10V10z M10,66h24v24H10V66z M38,64v-6h24v32H38
	V64z M66,90V66h24v24H66z"/>
</svg>
