<svg width="296" height="62" viewBox="0 0 296 62" fill="none" xmlns="http://www.w3.org/2000/svg">
<rect width="296" height="62" fill="black"/>
<rect x="3" y="3" width="290" height="56" fill="white"/>
<path d="M14.782 43H20.788V41.119H20.854C21.943 42.802 23.989 43.561 25.969 43.561C31.018 43.561 34.516 39.403 34.516 34.519C34.516 29.668 31.051 25.51 26.035 25.51C24.088 25.51 22.075 26.236 20.788 27.721V15.61H14.782V43ZM24.451 30.724C26.893 30.724 28.312 32.473 28.312 34.552C28.312 36.697 26.893 38.347 24.451 38.347C22.009 38.347 20.59 36.697 20.59 34.552C20.59 32.473 22.009 30.724 24.451 30.724ZM41.8301 26.071H35.8241V43H41.8301V26.071ZM38.8271 16.204C36.9791 16.204 35.4611 17.722 35.4611 19.57C35.4611 21.418 36.9791 22.936 38.8271 22.936C40.6751 22.936 42.1931 21.418 42.1931 19.57C42.1931 17.722 40.6751 16.204 38.8271 16.204ZM57.3321 26.599C55.5831 25.807 53.6691 25.51 51.7551 25.51C48.0591 25.51 44.2971 27.358 44.2971 31.516C44.2971 34.552 46.1781 35.476 48.0591 35.971C49.9401 36.466 51.8211 36.532 51.8211 37.852C51.8211 38.776 50.6991 39.139 49.9401 39.139C48.4551 39.139 46.4091 38.281 45.1881 37.423L43.0101 41.614C45.0561 42.868 47.4321 43.561 49.8411 43.561C53.7682 43.561 57.8271 41.713 57.8271 37.258C57.8271 34.123 55.7151 32.803 52.9101 32.242C52.0852 32.077 50.2041 31.912 50.2041 30.757C50.2041 29.899 51.3921 29.602 52.0852 29.602C53.1081 29.602 54.3951 29.932 55.3191 30.427L57.3321 26.599ZM71.6111 26.5C70.4231 25.84 69.0371 25.51 67.6511 25.51C62.3381 25.51 58.1801 29.272 58.1801 34.717C58.1801 39.832 62.3711 43.561 67.3871 43.561C68.8391 43.561 70.2911 43.264 71.6111 42.604V37.522C70.8191 38.248 69.6641 38.677 68.6081 38.677C66.1331 38.677 64.3841 36.961 64.3841 34.519C64.3841 32.176 66.1991 30.394 68.5091 30.394C69.6641 30.394 70.7201 30.922 71.6111 31.582V26.5ZM72.2842 26.071V36.268C72.2842 41.845 76.2112 43.561 81.2932 43.561C86.3752 43.561 90.3022 41.845 90.3022 36.268V26.071H84.2962V35.113C84.2962 37.258 83.7682 38.776 81.2932 38.776C78.8182 38.776 78.2902 37.258 78.2902 35.113V26.071H72.2842ZM97.8322 26.071H91.8262V43H97.8322V26.071ZM94.8292 16.204C92.9812 16.204 91.4632 17.722 91.4632 19.57C91.4632 21.418 92.9812 22.936 94.8292 22.936C96.6772 22.936 98.1952 21.418 98.1952 19.57C98.1952 17.722 96.6772 16.204 94.8292 16.204ZM106.041 31.021H109.44V26.071H106.041V20.989H100.035V26.071H98.0882V31.021H100.035V43H106.041V31.021ZM122.916 26.599C121.167 25.807 119.253 25.51 117.339 25.51C113.643 25.51 109.881 27.358 109.881 31.516C109.881 34.552 111.762 35.476 113.643 35.971C115.524 36.466 117.405 36.532 117.405 37.852C117.405 38.776 116.283 39.139 115.524 39.139C114.039 39.139 111.993 38.281 110.772 37.423L108.594 41.614C110.64 42.868 113.016 43.561 115.425 43.561C119.352 43.561 123.411 41.713 123.411 37.258C123.411 34.123 121.299 32.803 118.494 32.242C117.669 32.077 115.788 31.912 115.788 30.757C115.788 29.899 116.976 29.602 117.669 29.602C118.692 29.602 119.979 29.932 120.903 30.427L122.916 26.599ZM140.652 26.071H134.646V43H140.652V34.222C140.652 32.11 141.345 30.295 143.787 30.295C146.757 30.295 146.493 33.133 146.493 34.75V43H152.499V32.539C152.499 28.381 150.684 25.51 146.13 25.51C143.787 25.51 142.104 26.203 140.718 28.249H140.652V26.071ZM183.054 26.071H177.048V27.853H176.982C175.794 26.17 173.979 25.51 171.999 25.51C166.818 25.51 163.32 29.734 163.32 34.684C163.32 39.568 166.719 43.33 171.669 43.33C173.913 43.33 175.497 42.571 177.048 41.02V41.812C177.048 44.551 176.421 46.663 173.187 46.663C172.626 46.663 171.999 46.531 171.471 46.267C170.943 46.003 170.514 45.574 170.349 44.98H163.617C164.145 49.435 169.359 51.448 173.253 51.448C179.49 51.448 183.054 48.544 183.054 41.35V26.071ZM173.385 30.592C175.827 30.592 177.246 32.341 177.246 34.42C177.246 36.565 175.827 38.215 173.385 38.215C170.943 38.215 169.524 36.565 169.524 34.42C169.524 32.341 170.943 30.592 173.385 30.592ZM191.164 26.071H185.158V43H191.164V36.169C191.164 33.265 191.989 31.054 195.322 31.054C196.246 31.054 197.038 31.153 197.863 31.615V25.84H196.708C194.365 25.84 192.385 26.764 191.23 28.843H191.164V26.071ZM208.064 25.51C202.619 25.51 197.867 28.777 197.867 34.552C197.867 40.327 202.652 43.561 208.064 43.561C213.509 43.561 218.261 40.294 218.261 34.552C218.261 28.777 213.509 25.51 208.064 25.51ZM208.064 30.724C210.506 30.724 211.925 32.473 211.925 34.552C211.925 36.697 210.506 38.347 208.064 38.347C205.622 38.347 204.203 36.697 204.203 34.552C204.203 32.473 205.622 30.724 208.064 30.724ZM228.759 25.51C223.314 25.51 218.562 28.777 218.562 34.552C218.562 40.327 223.347 43.561 228.759 43.561C234.204 43.561 238.956 40.294 238.956 34.552C238.956 28.777 234.204 25.51 228.759 25.51ZM228.759 30.724C231.201 30.724 232.62 32.473 232.62 34.552C232.62 36.697 231.201 38.347 228.759 38.347C226.317 38.347 224.898 36.697 224.898 34.552C224.898 32.473 226.317 30.724 228.759 30.724ZM244.768 26.071H238.036L246.913 43H250.741L259.585 26.071H252.853L248.827 34.75L244.768 26.071ZM265.13 40.69L259.355 51.448H266.087L279.65 26.071H272.819L268.397 34.75L263.876 26.071H256.946L265.13 40.69Z" fill="black"/>
<circle cx="26.25" cy="34.75" r="5.75" fill="#FFF700"/>
<circle cx="26.2" cy="35" r="3" fill="black"/>
<circle cx="172.25" cy="34.25" r="5.25" fill="#1DBDB5"/>
<circle cx="172.75" cy="34.25" r="2.75" fill="black"/>
</svg>
