<?xml version="1.0" encoding="utf-8"?>
<svg version="1.0" width="1733.000000pt" height="334.000000pt" viewBox="0 0 1733.000000 334.000000" preserveAspectRatio="xMidYMid meet" xmlns="http://www.w3.org/2000/svg" xmlns:bx="https://boxy-svg.com">
  <g transform="translate(0.000000,334.000000) scale(0.100000,-0.100000)" fill="#000000" stroke="none">
    <path d="M0 1670 l0 -1670 8665 0 8665 0 0 1670 0 1670 -8665 0 -8665 0 0 -1670z m17150 5 l0 -1495 -8490 0 -8490 0 0 1495 0 1495 8490 0 8490 0 0 -1495z"/>
    <path d="M940 1820 l0 -830 175 0 175 0 0 56 0 56 38 -34 c55 -50 101 -76 167 -93 222 -57 466 57 569 266 170 346 -16 745 -371 799 -129 20 -259 -12 -349 -85 -23 -19 -45 -35 -48 -35 -3 0 -6 164 -6 365 l0 365 -175 0 -175 0 0 -830z m827 15 c77 -35 154 -112 190 -189 24 -52 28 -74 28 -151 0 -78 -4 -98 -28 -150 -37 -79 -114 -156 -191 -192 -52 -24 -74 -28 -151 -28 -78 0 -98 4 -150 28 -79 37 -156 114 -192 191 -24 52 -28 74 -28 151 0 78 4 98 28 150 48 103 149 188 254 215 65 16 176 5 240 -25z"/>
    <path d="M1545 1661 c-154 -71 -150 -280 7 -346 47 -19 89 -19 136 0 160 67 160 283 0 350 -49 20 -94 19 -143 -4z"/>
    <path d="M2291 2600 c-73 -31 -131 -115 -131 -190 0 -57 42 -135 91 -167 37 -24 52 -28 114 -28 62 0 77 4 112 28 116 80 116 253 0 334 -30 21 -53 28 -101 30 -33 2 -72 -2 -85 -7z"/>
    <path d="M5622 2589 c-66 -33 -112 -108 -112 -183 0 -54 44 -132 91 -163 37 -24 52 -28 114 -28 62 0 77 4 112 28 130 90 111 292 -34 353 -48 21 -121 17 -171 -7z"/>
    <path d="M6038 2168 l-3 -153 -57 -3 -58 -3 0 -144 0 -144 58 -3 57 -3 3 -362 2 -363 180 0 180 0 0 365 0 365 100 0 100 0 0 145 0 145 -100 0 -100 0 0 155 0 155 -180 0 -179 0 -3 -152z"/>
    <path d="M2958 2034 c-186 -45 -298 -175 -298 -346 0 -165 75 -236 305 -292 60 -15 118 -34 127 -43 25 -23 23 -77 -4 -102 -49 -46 -162 -36 -287 26 -42 20 -80 37 -84 37 -4 1 -37 -54 -72 -121 l-65 -123 53 -26 c269 -137 584 -115 749 51 97 98 124 283 58 390 -50 81 -120 121 -281 161 -121 30 -136 37 -141 66 -14 84 101 116 244 67 49 -16 63 -18 70 -7 11 16 108 206 108 212 0 9 -81 35 -153 50 -92 19 -251 19 -329 0z"/>
    <path d="M3949 2040 c-223 -35 -392 -180 -453 -389 -20 -68 -21 -227 -2 -297 46 -172 179 -307 366 -370 86 -29 263 -26 355 6 l70 25 3 152 3 152 -55 -28 c-73 -39 -140 -47 -210 -27 -170 50 -233 262 -118 396 53 63 103 85 192 84 72 0 87 -5 183 -52 4 -2 6 65 5 150 l-3 153 -65 22 c-77 26 -192 35 -271 23z"/>
    <path d="M6918 2035 c-199 -50 -309 -190 -296 -374 11 -149 82 -211 303 -265 60 -15 118 -34 127 -43 25 -23 23 -77 -4 -102 -49 -46 -162 -36 -287 26 -42 20 -80 37 -84 37 -4 1 -37 -54 -73 -121 l-64 -122 52 -27 c151 -76 326 -107 468 -81 139 25 196 51 271 126 80 80 103 137 103 252 0 91 -25 149 -86 204 -52 47 -102 69 -229 101 -130 32 -139 37 -139 77 0 18 4 37 8 43 27 41 134 47 233 14 50 -17 64 -19 71 -8 31 46 108 212 101 219 -4 4 -42 17 -83 29 -98 29 -308 36 -392 15z"/>
    <path d="M12220 2044 c-14 -3 -60 -16 -102 -30 -179 -59 -319 -200 -364 -369 -18 -66 -17 -216 1 -284 39 -148 146 -275 287 -340 107 -50 178 -65 308 -64 125 0 216 20 319 69 133 64 248 206 280 344 15 64 13 216 -3 276 -45 169 -181 306 -368 371 -61 21 -95 26 -203 28 -71 2 -141 1 -155 -1z m203 -315 c87 -24 160 -127 159 -225 -2 -201 -237 -309 -384 -176 -159 143 -63 409 147 412 22 0 57 -5 78 -11z"/>
    <path d="M13455 2040 c-126 -26 -222 -77 -311 -162 -107 -102 -154 -217 -154 -373 0 -158 45 -269 150 -376 117 -119 259 -172 455 -172 200 0 348 55 465 172 108 108 149 212 150 377 0 241 -138 426 -382 511 -60 21 -95 26 -203 29 -71 2 -148 -1 -170 -6z m226 -315 c163 -58 203 -278 71 -397 -147 -133 -383 -24 -383 177 0 165 156 275 312 220z"/>
    <path d="M8590 2029 c-72 -12 -129 -41 -190 -96 l-50 -45 0 61 0 61 -175 0 -175 0 0 -510 0 -510 174 0 174 0 4 308 c3 306 3 308 28 357 65 126 252 129 312 6 21 -44 22 -61 26 -358 l4 -313 175 0 174 0 -3 398 -3 397 -28 57 c-48 98 -148 168 -268 188 -73 11 -102 11 -179 -1z"/>
    <path d="M10039 2022 c-176 -58 -306 -199 -353 -379 -21 -81 -21 -243 0 -314 70 -235 281 -378 526 -355 88 8 155 34 225 87 l55 42 -4 -96 c-3 -84 -7 -100 -34 -143 -42 -68 -104 -99 -198 -98 -82 0 -129 20 -154 65 l-17 29 -202 0 c-127 0 -203 -4 -203 -10 0 -5 9 -33 19 -61 46 -120 166 -224 316 -275 107 -36 294 -45 412 -19 159 34 298 126 357 235 60 110 59 105 63 718 l4 562 -180 0 -181 0 0 -51 0 -51 -41 37 c-72 64 -139 89 -254 92 -76 2 -113 -1 -156 -15z m223 -223 c67 -14 99 -31 149 -76 140 -127 140 -340 -1 -467 -63 -57 -121 -79 -210 -79 -89 0 -147 22 -210 79 -104 94 -137 255 -75 374 41 80 124 145 209 166 66 16 75 16 138 3z"/>
    <path d="M10129 1627 c-53 -36 -79 -82 -79 -142 0 -94 71 -165 165 -165 94 0 165 71 165 165 0 94 -71 165 -165 165 -38 0 -61 -6 -86 -23z" style="stroke-miterlimit: 1; stroke: rgb(186, 218, 85); paint-order: stroke;"/>
    <path d="M11600 2029 c-73 -14 -145 -56 -199 -114 -53 -59 -63 -65 -60 -37 1 9 1 43 0 75 l-1 57 -175 0 -175 0 0 -510 0 -510 174 0 174 0 5 263 c5 284 11 325 62 390 40 54 99 78 187 79 40 0 92 -7 116 -15 l42 -15 -2 172 -3 171 -50 2 c-27 1 -70 -3 -95 -8z"/>
    <path d="M2190 1500 l0 -510 175 0 175 0 0 510 0 510 -175 0 -175 0 0 -510z"/>
    <path d="M4352 1623 l3 -388 29 -58 c52 -102 133 -161 274 -199 110 -29 354 -29 464 0 141 38 222 97 274 199 l29 58 3 388 3 387 -175 0 -174 0 -4 -317 c-3 -286 -5 -322 -22 -356 -32 -64 -68 -82 -166 -82 -98 0 -134 18 -166 82 -17 34 -19 70 -22 356 l-4 317 -174 0 -175 0 3 -387z"/>
    <path d="M5540 1500 l0 -510 175 0 175 0 0 510 0 510 -175 0 -175 0 0 -510z"/>
    <path d="M14110 2003 c1 -5 117 -233 259 -508 l258 -500 122 0 122 0 227 437 c125 241 229 437 232 437 8 0 410 -726 410 -741 0 -7 -77 -155 -170 -328 l-169 -315 196 -3 c149 -2 200 1 208 10 7 7 191 348 410 758 219 410 400 748 402 753 2 4 -89 6 -204 5 l-208 -3 -131 -258 -131 -258 -134 258 -134 258 -339 0 -340 0 -119 -252 c-66 -139 -123 -253 -126 -253 -3 0 -58 114 -123 253 l-116 252 -201 3 c-111 1 -201 -1 -201 -5z"/>
  </g>
  <path d="M 165.6 193.2 m -31.717 0 a 31.717 31.717 0 1 0 63.434 0 a 31.717 31.717 0 1 0 -63.434 0 Z M 165.6 193.2 m -19.03 0 a 19.03 19.03 0 0 1 38.06 0 a 19.03 19.03 0 0 1 -38.06 0 Z" style="fill: rgb(216, 216, 216); stroke: rgb(245, 238, 13); stroke-miterlimit: 26; stroke-width: 13px;" transform="matrix(-0.624695, 0.780869, -0.780869, -0.624695, 416.503264, 175.025285)" bx:shape="ring 165.6 193.2 19.03 19.03 31.717 31.717 1@4614c3b8" bx:origin="0.623 0.579"/>
  <path d="M 165.6 193.2 m -31.717 0 a 31.717 31.717 0 1 0 63.434 0 a 31.717 31.717 0 1 0 -63.434 0 Z M 165.6 193.2 m -19.03 0 a 19.03 19.03 0 0 1 38.06 0 a 19.03 19.03 0 0 1 -38.06 0 Z" style="fill: rgb(216, 216, 216); stroke: rgb(37, 193, 169); stroke-miterlimit: 49; stroke-dashoffset: -12px; stroke-width: 15px;" transform="matrix(-0.624695, 0.780869, -0.780869, -0.624695, 1273.122038, 175.66295)" bx:shape="ring 165.6 193.2 19.03 19.03 31.717 31.717 1@4614c3b8" bx:origin="0.623 0.579"/>
</svg>