<?xml version="1.0" encoding="utf-8"?>
<!-- Generator: Adobe Illustrator 23.0.1, SVG Export Plug-In . SVG Version: 6.00 Build 0)  -->
<svg version="1.1" id="Layer_1" xmlns="http://www.w3.org/2000/svg" xmlns:xlink="http://www.w3.org/1999/xlink" x="0px" y="0px"
	 viewBox="0 0 100 100" style="enable-background:new 0 0 100 100;" xml:space="preserve">
<path d="M87,10H13c-4.41,0-8,3.59-8,8v64c0,4.41,3.59,8,8,8h34h36h4c4.41,0,8-3.59,8-8V18C95,13.59,91.41,10,87,10z M91,18v8H52V14
	h35C89.21,14,91,15.79,91,18z M13,14h35v12H9v-8C9,15.79,10.79,14,13,14z M87,86h-4H47H13c-2.21,0-4-1.79-4-4V30h39v22.17
	L37.41,41.59c-0.78-0.78-2.05-0.78-2.83,0c-0.78,0.78-0.78,2.05,0,2.83l14,14c0.09,0.09,0.2,0.18,0.31,0.25
	c0.05,0.03,0.1,0.06,0.15,0.08c0.06,0.03,0.12,0.07,0.19,0.1c0.07,0.03,0.13,0.04,0.2,0.06c0.06,0.02,0.11,0.04,0.17,0.05
	C49.74,58.99,49.87,59,50,59s0.26-0.01,0.39-0.04c0.06-0.01,0.12-0.03,0.17-0.05c0.07-0.02,0.13-0.04,0.2-0.06
	c0.07-0.03,0.13-0.07,0.2-0.1c0.05-0.03,0.1-0.05,0.15-0.08c0.11-0.07,0.21-0.16,0.31-0.25l14-14c0.78-0.78,0.78-2.05,0-2.83
	c-0.78-0.78-2.05-0.78-2.83,0L52,52.17V30h39v52C91,84.21,89.21,86,87,86z M13.04,20.39C13.01,20.26,13,20.13,13,20
	c0-0.13,0.01-0.26,0.04-0.39c0.03-0.13,0.06-0.25,0.11-0.38c0.05-0.12,0.12-0.23,0.19-0.34c0.07-0.11,0.15-0.21,0.24-0.3
	c0.1-0.1,0.2-0.18,0.31-0.25c0.11-0.08,0.22-0.14,0.34-0.19c0.13-0.05,0.25-0.09,0.38-0.11c0.26-0.05,0.52-0.05,0.78,0
	c0.13,0.02,0.26,0.06,0.38,0.11c0.12,0.05,0.23,0.11,0.34,0.19c0.11,0.07,0.21,0.15,0.31,0.25c0.09,0.09,0.17,0.19,0.24,0.3
	c0.08,0.11,0.14,0.22,0.19,0.34c0.05,0.13,0.09,0.25,0.11,0.38C16.99,19.74,17,19.87,17,20c0,0.53-0.21,1.04-0.58,1.41
	c-0.1,0.1-0.2,0.18-0.31,0.25c-0.11,0.07-0.22,0.14-0.34,0.19c-0.12,0.05-0.25,0.08-0.38,0.11C15.26,21.99,15.13,22,15,22
	c-0.13,0-0.26-0.01-0.39-0.04c-0.13-0.03-0.25-0.06-0.38-0.11c-0.12-0.05-0.23-0.12-0.34-0.19c-0.11-0.07-0.21-0.15-0.31-0.25
	c-0.09-0.09-0.17-0.19-0.24-0.3s-0.14-0.22-0.19-0.34C13.1,20.64,13.07,20.52,13.04,20.39z M21.04,20.39C21.01,20.26,21,20.13,21,20
	c0-0.13,0.01-0.26,0.04-0.39c0.02-0.13,0.06-0.25,0.11-0.37c0.05-0.13,0.11-0.24,0.19-0.35c0.07-0.11,0.15-0.21,0.25-0.3
	c0.09-0.1,0.19-0.18,0.3-0.25c0.11-0.08,0.22-0.14,0.35-0.19c0.12-0.05,0.24-0.09,0.37-0.11c0.26-0.05,0.52-0.05,0.78,0
	c0.13,0.02,0.25,0.06,0.38,0.11c0.12,0.05,0.23,0.11,0.34,0.19c0.11,0.07,0.21,0.15,0.31,0.25C24.79,18.96,25,19.48,25,20
	s-0.21,1.04-0.58,1.41c-0.1,0.1-0.2,0.18-0.31,0.25c-0.11,0.08-0.22,0.14-0.34,0.19c-0.13,0.05-0.25,0.09-0.38,0.11
	C23.26,21.99,23.13,22,23,22c-0.13,0-0.26-0.01-0.39-0.04c-0.13-0.02-0.25-0.06-0.37-0.11c-0.13-0.05-0.24-0.11-0.35-0.19
	c-0.11-0.07-0.21-0.15-0.3-0.25c-0.1-0.09-0.18-0.19-0.25-0.3c-0.08-0.11-0.14-0.22-0.19-0.34C21.1,20.64,21.06,20.52,21.04,20.39z
	 M29.04,20.39C29.01,20.26,29,20.13,29,20c0-0.53,0.21-1.04,0.59-1.41c0.74-0.75,2.08-0.75,2.82,0C32.79,18.96,33,19.47,33,20
	c0,0.13-0.01,0.26-0.04,0.39c-0.02,0.13-0.06,0.25-0.11,0.38c-0.05,0.12-0.12,0.23-0.19,0.34c-0.07,0.11-0.15,0.21-0.25,0.3
	C32.04,21.79,31.53,22,31,22c-0.53,0-1.04-0.21-1.41-0.59c-0.1-0.09-0.18-0.19-0.25-0.3s-0.14-0.22-0.19-0.34
	C29.1,20.64,29.06,20.52,29.04,20.39z"/>
</svg>
