<?xml version="1.0" encoding="utf-8"?>
<!-- Generator: Adobe Illustrator 23.0.1, SVG Export Plug-In . SVG Version: 6.00 Build 0)  -->
<svg version="1.1" id="Layer_1" xmlns="http://www.w3.org/2000/svg" xmlns:xlink="http://www.w3.org/1999/xlink" x="0px" y="0px"
	 viewBox="0 0 100 100" style="enable-background:new 0 0 100 100;" xml:space="preserve">
<path d="M50,5C25.19,5,5,25.19,5,50c0,24.81,20.19,45,45,45c24.81,0,45-20.19,45-45C95,25.19,74.81,5,50,5z M50,91
	C27.39,91,9,72.61,9,50S27.39,9,50,9s41,18.39,41,41S72.61,91,50,91z M21,50c0,1.1-0.9,2-2,2s-2-0.9-2-2c0-18.2,14.8-33,33-33
	c1.1,0,2,0.9,2,2s-0.9,2-2,2C34.01,21,21,34.01,21,50z M83,50c0,18.2-14.8,33-33,33c-1.1,0-2-0.9-2-2s0.9-2,2-2
	c15.99,0,29-13.01,29-29c0-1.1,0.9-2,2-2S83,48.9,83,50z M50,33c-9.37,0-17,7.63-17,17c0,1.1-0.9,2-2,2s-2-0.9-2-2
	c0-11.58,9.42-21,21-21c1.1,0,2,0.9,2,2S51.1,33,50,33z M50,67c9.37,0,17-7.63,17-17c0-1.1,0.9-2,2-2s2,0.9,2,2
	c0,11.58-9.42,21-21,21c-1.1,0-2-0.9-2-2S48.9,67,50,67z M59,50c0-4.96-4.04-9-9-9c-4.96,0-9,4.04-9,9c0,4.96,4.04,9,9,9
	C54.96,59,59,54.96,59,50z M45,50c0-2.76,2.24-5,5-5s5,2.24,5,5s-2.24,5-5,5S45,52.76,45,50z"/>
</svg>
