<?xml version="1.0" encoding="utf-8"?>
<!-- Generator: Adobe Illustrator 21.0.2, SVG Export Plug-In . SVG Version: 6.00 Build 0)  -->
<svg version="1.1" id="Layer_1" xmlns="http://www.w3.org/2000/svg" xmlns:xlink="http://www.w3.org/1999/xlink" x="0px" y="0px"
	 viewBox="0 0 100 100" style="enable-background:new 0 0 100 100;" xml:space="preserve">
<path d="M93.4,37.6c0.8,0.8,0.8,2,0,2.8l-42,42C51,82.8,50.5,83,50,83s-1-0.2-1.4-0.6l-42-42c-0.8-0.8-0.8-2,0-2.8
	c0.8-0.8,2-0.8,2.8,0L50,78.2l40.6-40.6C91.4,36.8,92.6,36.8,93.4,37.6z M48.6,62.4C49,62.8,49.5,63,50,63s1-0.2,1.4-0.6l42-42
	c0.8-0.8,0.8-2,0-2.8c-0.8-0.8-2-0.8-2.8,0L50,58.2L9.4,17.6c-0.8-0.8-2-0.8-2.8,0c-0.8,0.8-0.8,2,0,2.8L48.6,62.4z"/>
</svg>
