<?xml version="1.0" encoding="utf-8"?>
<!-- Generator: Adobe Illustrator 21.0.2, SVG Export Plug-In . SVG Version: 6.00 Build 0)  -->
<svg version="1.1" id="Layer_1" xmlns="http://www.w3.org/2000/svg" xmlns:xlink="http://www.w3.org/1999/xlink" x="0px" y="0px"
	 viewBox="0 0 100 100" style="enable-background:new 0 0 100 100;" xml:space="preserve">
<path d="M6.6,62.4c-0.8-0.8-0.8-2,0-2.8l42-42c0.8-0.8,2-0.8,2.8,0l42,42c0.8,0.8,0.8,2,0,2.8C93,62.8,92.5,63,92,63s-1-0.2-1.4-0.6
	L50,21.8L9.4,62.4C9,62.8,8.5,63,8,63S7,62.8,6.6,62.4z M51.4,37.6c-0.8-0.8-2-0.8-2.8,0l-42,42c-0.8,0.8-0.8,2,0,2.8
	C7,82.8,7.5,83,8,83s1-0.2,1.4-0.6L50,41.8l40.6,40.6C91,82.8,91.5,83,92,83s1-0.2,1.4-0.6c0.8-0.8,0.8-2,0-2.8L51.4,37.6z"/>
</svg>
