<?xml version="1.0" encoding="utf-8"?>
<!-- Generator: Adobe Illustrator 23.0.1, SVG Export Plug-In . SVG Version: 6.00 Build 0)  -->
<svg version="1.1" id="Layer_1" xmlns="http://www.w3.org/2000/svg" xmlns:xlink="http://www.w3.org/1999/xlink" x="0px" y="0px"
	 viewBox="0 0 100 100" style="enable-background:new 0 0 100 100;" xml:space="preserve">
<path d="M89.5,20.4l2.1-2.1c1.3-1.3,2.1-3.1,2.1-5S93,9.7,91.6,8.4c-1.3-1.3-3.1-2.1-4.9-2.1s-3.6,0.7-5,2.1l-2.1,2.1l-2.5-2.5
	c-0.8-0.8-2-0.8-2.8,0c-0.8,0.8-0.8,2,0,2.8l2.5,2.5l-4.2,4.2L70,15c-0.8-0.8-2-0.8-2.8,0c-0.8,0.8-0.8,2,0,2.8l2.5,2.5L58.6,31.6
	c-2.3-1.1-4.8-1.7-7.4-1.8c-5.7-0.3-11.3,1.8-15.4,5.9c-1.3,1.3-2.3,2.7-3.2,4.2c-1,1.8-2.8,2.9-4.8,3c-5.7,0.3-11,2.6-14.9,6.5
	C8.3,54,6,60.3,6.3,67.1c0.4,6.7,3.3,13.2,8.4,18.2c5.6,5.5,12.7,8.4,19.6,8.4c6,0,11.9-2.2,16.3-6.5c3.9-3.9,6.2-9.2,6.5-14.9
	c0.1-2,1.2-3.8,3-4.8c2.4-1.4,4.5-3.2,6.2-5.5c4.4-5.9,5.1-13.9,2.1-20.5l11.2-11.2l2.6,2.6c0.4,0.4,0.9,0.6,1.4,0.6
	c0.5,0,1-0.2,1.4-0.6c0.8-0.8,0.8-2.1,0-2.8l-2.5-2.5l4.2-4.2l2.5,2.5c0.4,0.4,0.9,0.6,1.4,0.6s1-0.2,1.4-0.6c0.8-0.8,0.8-2,0-2.8
	L89.5,20.4z M63.1,59.6c-1.4,1.8-3,3.3-5,4.4c-3,1.7-4.8,4.7-5,8c-0.3,4.8-2.1,9.1-5.4,12.3c-7.8,7.8-21.4,7-30.3-1.8
	c-4.3-4.3-6.9-9.9-7.2-15.6C10,61.2,11.9,56,15.7,52.2c3.2-3.2,7.5-5.1,12.3-5.3c3.3-0.2,6.4-2.1,8.1-5.1c0.7-1.2,1.6-2.4,2.6-3.4
	c3-3,7.2-4.7,11.5-4.7c0.3,0,0.6,0,0.9,0c1.6,0.1,3.1,0.4,4.5,0.9L42.2,48c-1.3,1.3-2,3.1-2,5c0,0.2,0,0.5,0,0.7
	c0.2,1.6,0.9,3.1,2,4.2c1.2,1.2,2.6,1.9,4.2,2c0.2,0,0.5,0,0.7,0c1.9,0,3.6-0.7,5-2.1l13.3-13.3C67.1,49.5,66.4,55.2,63.1,59.6z
	 M49.2,50.8c1.2,1.2,1.2,3.1,0,4.2c-0.1,0.1-0.3,0.3-0.5,0.4C47.6,56.1,46,56,45,55c-0.6-0.6-0.9-1.3-0.9-2.1c0-0.8,0.3-1.6,0.9-2.1
	c0.6-0.6,1.4-0.9,2.1-0.9C47.9,49.9,48.6,50.2,49.2,50.8z M53.7,50.6c-0.3-1-0.9-1.8-1.6-2.6s-1.7-1.3-2.6-1.6l23.1-23.1l4.2,4.2
	L53.7,50.6z M79.6,24.6l-4.2-4.2l4.2-4.2l4.2,4.2L79.6,24.6z M88.8,15.4l-2.1,2.1l-4.2-4.2l2.1-2.1c0.6-0.6,1.3-0.9,2.1-0.9
	c0.8,0,1.5,0.3,2.1,0.9c0.6,0.6,0.9,1.3,0.9,2.1C89.7,14.1,89.4,14.9,88.8,15.4z M43.6,67.8c0.8,0.8,0.8,2,0,2.8
	c-0.4,0.4-0.9,0.6-1.4,0.6c-0.5,0-1-0.2-1.4-0.6L29.4,59.3c-0.8-0.8-0.8-2.1,0-2.8c0.8-0.8,2-0.8,2.8,0L43.6,67.8z"/>
</svg>
