<?xml version="1.0" encoding="utf-8"?>
<!-- Generator: Adobe Illustrator 25.2.1, SVG Export Plug-In . SVG Version: 6.00 Build 0)  -->
<svg version="1.1" id="Layer_1" xmlns="http://www.w3.org/2000/svg" xmlns:xlink="http://www.w3.org/1999/xlink" x="0px" y="0px"
	 viewBox="0 0 100 100" style="enable-background:new 0 0 100 100;" xml:space="preserve">
<style type="text/css">
	.st0{fill:#C83C51;}
	.st1{fill:#231F20;}
	.st2{fill:#218ADC;}
	.st3{fill:#FFB655;}
	.st4{fill:#1765A1;}
	.st5{opacity:0.16;fill:#FFFFFF;}
</style>
<g>
	<path class="st0" d="M91,46v2.01c-1.16-0.88-2.52-1.51-4-1.81c-0.64-0.13-1.31-0.2-2-0.2h-4.29c-0.61-2.04-2.13-3.7-4.09-4.49
		C74.48,28.75,63.36,19,50,19s-24.48,9.75-26.62,22.51c-1.96,0.79-3.48,2.45-4.09,4.49H15c-0.69,0-1.36,0.07-2,0.2
		c-1.48,0.3-2.84,0.93-4,1.81V46C9,23.39,27.39,5,50,5S91,23.39,91,46z"/>
	<path class="st0" d="M23.38,41.51c-0.14,0.8-0.24,1.6-0.29,2.42C23.03,44.61,23,45.3,23,46v7c0,1.1-0.9,2-2,2s-2-0.9-2-2v-7h0.29
		C19.9,43.96,21.42,42.3,23.38,41.51z"/>
	<path class="st0" d="M81,46v7c0,1.1-0.9,2-2,2s-2-0.9-2-2v-7c0-0.7-0.03-1.39-0.09-2.07c-0.05-0.82-0.15-1.62-0.29-2.42
		c1.96,0.79,3.48,2.45,4.09,4.49H81z"/>
</g>
<g>
	<path class="st1" d="M9,48.01c1.16-0.88,2.52-1.51,4-1.81V53c0,1.1-0.9,2-2,2c-0.7,0-1.33-0.37-1.68-0.92C9.11,53.77,9,53.4,9,53
		V48.01z"/>
	<path class="st1" d="M91,48.01V53c0,0.4-0.11,0.77-0.32,1.08C90.33,54.63,89.7,55,89,55c-1.1,0-2-0.9-2-2v-6.8
		C88.48,46.5,89.84,47.13,91,48.01z"/>
</g>
<path class="st2" d="M91,48.01c-1.16-0.88-2.52-1.51-4-1.81c-0.64-0.13-1.31-0.2-2-0.2h-6c-0.14,0-0.27,0.01-0.4,0.04
	c-0.91,0.19-1.6,1-1.6,1.96v22c0,0.96,0.69,1.77,1.6,1.96C78.73,71.99,78.86,72,79,72h6c5.51,0,10-4.49,10-10v-6
	C95,52.74,93.43,49.83,91,48.01z"/>
<path class="st2" d="M23,48v22c0,0.96-0.69,1.77-1.6,1.96C21.27,71.99,21.14,72,21,72h-6C9.49,72,5,67.51,5,62v-6
	c0-3.26,1.57-6.17,4-7.99c1.16-0.88,2.52-1.51,4-1.81c0.64-0.13,1.31-0.2,2-0.2h6c0.14,0,0.27,0.01,0.4,0.04
	C22.31,46.23,23,47.04,23,48z"/>
<g>
	<path class="st3" d="M61,42v40c0,5.01-2.84,9.36-7,11.53C52.21,94.47,50.16,95,48,95c-7.17,0-13-5.83-13-13
		c0-6.83,5.3-12.45,12-12.96V42c0-3.86,3.14-7,7-7S61,38.14,61,42z"/>
</g>
<path class="st4" d="M80.71,46c-0.61-2.04-2.13-3.7-4.09-4.49C75.81,41.18,74.93,41,74,41c-3.86,0-7,3.14-7,7v22c0,3.86,3.14,7,7,7
	c3.17,0,5.85-2.11,6.71-5C80.9,71.37,81,70.69,81,70V48C81,47.31,80.9,46.63,80.71,46z"/>
<path class="st4" d="M33,48v22c0,3.86-3.14,7-7,7c-3.17,0-5.85-2.11-6.71-5C19.1,71.37,19,70.69,19,70V48c0-0.69,0.1-1.37,0.29-2
	c0.61-2.04,2.13-3.7,4.09-4.49C24.19,41.18,25.07,41,26,41C29.86,41,33,44.14,33,48z"/>
<path class="st5" d="M54,35v58.53C52.21,94.47,50.16,95,48,95c-7.17,0-13-5.83-13-13c0-6.83,5.3-12.45,12-12.96V42
	C47,38.14,50.14,35,54,35z"/>
<path class="st5" d="M23.38,41.51C24.19,41.18,25.07,41,26,41c3.86,0,7,3.14,7,7v22c0,3.86-3.14,7-7,7c-3.17,0-5.85-2.11-6.71-5H15
	C9.49,72,5,67.51,5,62v-6c0-3.26,1.57-6.17,4-7.99V46C9,23.39,27.39,5,50,5v14C36.64,19,25.52,28.75,23.38,41.51z"/>
</svg>
