<?xml version="1.0" encoding="utf-8"?>
<!-- Generator: Adobe Illustrator 23.0.1, SVG Export Plug-In . SVG Version: 6.00 Build 0)  -->
<svg version="1.1" id="Layer_1" xmlns="http://www.w3.org/2000/svg" xmlns:xlink="http://www.w3.org/1999/xlink" x="0px" y="0px"
	 viewBox="0 0 100 100" style="enable-background:new 0 0 100 100;" xml:space="preserve">
<path d="M52,19v22h-4V19H52z M33,15h34c1.1,0,2-0.9,2-2V9H31v4C31,14.1,31.9,15,33,15z M50,91c2.6,0,4.8-1.7,5.7-4H44.3
	C45.2,89.3,47.4,91,50,91z M60,55H40c-11,0-20,9-20,20v6c0,1.1,0.9,2,2,2h56c1.1,0,2-0.9,2-2v-6C80,64,71,55,60,55z M42,47v4h16v-4
	c0-1.1-0.9-2-2-2H44C42.9,45,42,45.9,42,47z"/>
</svg>
