<?xml version="1.0" encoding="utf-8"?>
<svg version="1.1" id="Layer_1" x="0px" y="0px" viewBox="0 0 100 100" style="enable-background:new 0 0 100 100;" xmlns="http://www.w3.org/2000/svg">
  <g transform="matrix(-0.446199, -0.894933, 0.894933, -0.446199, 28.383352, 119.809647)">
    <polygon points="47.512 22.733 31.812 54.933 39.312 66.933 61.612 21.333" transform="matrix(1, 0, 0, 1, 0.000018, -0.000019)"/>
    <path d="M 61.242 49.277 C 63.442 44.777 61.542 39.377 57.142 37.277 L 49.242 53.377 C 53.642 55.577 59.042 53.677 61.242 49.277 Z" transform="matrix(1, 0, 0, 1, 0.000019, -0.000023)"/>
    <path d="M 82.029 56.713 L 73.029 52.313 C 72.029 51.813 70.829 52.213 70.329 53.213 C 69.829 54.213 70.229 55.413 71.229 55.913 L 80.229 60.313 C 80.529 60.413 80.829 60.513 81.129 60.513 C 81.829 60.513 82.629 60.113 82.929 59.413 C 83.429 58.313 82.929 57.113 82.029 56.713 Z" transform="matrix(0.999848, -0.017452, 0.017452, 0.999848, -0.970972, 1.345755)"/>
    <path d="M 62.274 65.068 C 61.874 64.068 60.774 63.468 59.774 63.868 C 58.774 64.268 58.174 65.368 58.574 66.368 L 61.874 75.868 C 62.174 76.668 62.974 77.268 63.774 77.268 C 63.974 77.268 64.174 77.268 64.474 77.168 C 65.474 76.768 66.074 75.668 65.674 74.668 L 62.274 65.068 Z" transform="matrix(0.999848, -0.017452, 0.017452, 0.999848, -1.220998, 1.094926)"/>
    <path d="M 84.777 33.783 C 84.377 32.783 83.277 32.183 82.277 32.583 L 72.777 35.883 C 71.777 36.283 71.177 37.383 71.577 38.383 C 71.877 39.183 72.677 39.783 73.477 39.783 C 73.677 39.783 73.877 39.783 74.177 39.683 L 83.677 36.383 C 84.577 35.883 85.077 34.783 84.777 33.783 Z" transform="matrix(0.999848, -0.017452, 0.017452, 0.999848, -0.618469, 1.369514)"/>
  </g>
</svg>