<?xml version="1.0" encoding="utf-8"?>
<!-- Generator: Adobe Illustrator 21.0.2, SVG Export Plug-In . SVG Version: 6.00 Build 0)  -->
<svg version="1.1" id="Layer_1" xmlns="http://www.w3.org/2000/svg" xmlns:xlink="http://www.w3.org/1999/xlink" x="0px" y="0px"
	 viewBox="0 0 100 100" style="enable-background:new 0 0 100 100;" xml:space="preserve">
<g>
	<path d="M70,29h-9c-2.3,0-4.6,0.4-6.8,1.1c2.5,1.9,4.6,4.2,6.2,6.9c0.2,0,0.4,0,0.6,0h9c7.2,0,13,5.8,13,13c0,7.2-5.8,13-13,13h-9
		c-0.6,0-1.3-0.1-1.9-0.2c0,0-0.1,0-0.1,0c-6.2-1-11-6.3-11-12.8c0-4-2.6-7.4-6.2-8.5C40.6,44.1,40,47,40,50c0,11.6,9.4,21,21,21h9
		c11.6,0,21-9.4,21-21C91,38.4,81.6,29,70,29z"/>
	<path d="M39.7,63H30c-7.2,0-13-5.8-13-13c0-7.2,5.8-13,13-13h9c7.2,0,13,5.8,13,13c0,4,2.6,7.4,6.2,8.5C59.4,55.9,60,53,60,50
		c0-11.6-9.4-21-21-21h-9C18.4,29,9,38.4,9,50c0,11.6,9.4,21,21,21h9c2.3,0,4.6-0.4,6.8-1.2C43.4,68,41.3,65.6,39.7,63z"/>
</g>
</svg>
