<?xml version="1.0" encoding="utf-8"?>
<!-- Generator: Adobe Illustrator 23.0.1, SVG Export Plug-In . SVG Version: 6.00 Build 0)  -->
<svg version="1.1" id="Layer_1" xmlns="http://www.w3.org/2000/svg" xmlns:xlink="http://www.w3.org/1999/xlink" x="0px" y="0px"
	 viewBox="0 0 100 100" style="enable-background:new 0 0 100 100;" xml:space="preserve">
<path d="M9,48h18v4H9c-1.1,0-2-0.9-2-2C7,48.9,7.9,48,9,48z M89,9H35c-2.21,0-4,1.79-4,4v35h49.17L73,40.83l-1.41-1.42
	c-0.79-0.78-0.79-2.04,0-2.82c0.78-0.79,2.04-0.79,2.82,0l12,11.99c0.1,0.1,0.18,0.2,0.25,0.31c0.04,0.05,0.06,0.1,0.09,0.15
	c0.03,0.07,0.07,0.13,0.1,0.2c0.02,0.06,0.04,0.13,0.06,0.2c0.02,0.05,0.04,0.11,0.05,0.17C86.99,49.74,87,49.87,87,50
	s-0.01,0.26-0.04,0.39c-0.01,0.06-0.03,0.12-0.05,0.17c-0.02,0.07-0.04,0.14-0.06,0.2c-0.03,0.07-0.07,0.13-0.1,0.2
	c-0.03,0.05-0.05,0.1-0.09,0.15c-0.07,0.11-0.15,0.21-0.25,0.31l-12,11.99C74.02,63.8,73.51,64,73,64s-1.02-0.2-1.41-0.59
	c-0.79-0.78-0.79-2.04,0-2.82L73,59.17L80.17,52H31v35c0,2.21,1.79,4,4,4h54c2.21,0,4-1.79,4-4V13C93,10.79,91.21,9,89,9z"/>
</svg>
