<?xml version="1.0" encoding="utf-8"?>
<svg viewBox="0 0 100 100" style="enable-background:new 0 0 100 100;" xmlns="http://www.w3.org/2000/svg">
  <path d="M 89.41 48.58 L 77.41 36.58 C 77.02 36.2 76.51 36 76 36 C 75.49 36 74.98 36.2 74.59 36.59 C 73.81 37.37 73.81 38.64 74.59 39.42 L 83.17 48 L 22 48 C 20.9 48 20 48.9 20 50 C 20 51.1 20.9 52 22 52 L 83.17 52 L 74.58 60.59 C 73.8 61.37 73.8 62.64 74.58 63.42 C 75.36 64.2 76.63 64.2 77.41 63.42 L 89.41 51.42 C 89.5 51.33 89.59 51.22 89.66 51.11 C 89.69 51.06 89.71 51.01 89.74 50.96 C 89.77 50.9 89.81 50.84 89.84 50.77 C 89.87 50.7 89.88 50.64 89.9 50.57 C 89.92 50.51 89.94 50.46 89.95 50.4 C 90 50.14 90 49.88 89.95 49.62 C 89.94 49.56 89.92 49.51 89.9 49.45 C 89.88 49.38 89.86 49.31 89.84 49.25 C 89.81 49.18 89.77 49.12 89.74 49.06 C 89.71 49.01 89.69 48.96 89.66 48.91 C 89.59 48.78 89.51 48.68 89.41 48.58 Z M 78 30 C 76.9 30 76 29.1 76 28 L 76 13 C 76 10.79 74.21 9 72 9 L 18 9 C 15.79 9 14 10.79 14 13 L 14 87 C 14 89.21 15.79 91 18 91 L 72 91 C 74.21 91 76 89.21 76 87 L 76 72 C 76 70.9 76.9 70 78 70 C 79.1 70 80 70.9 80 72 L 80 87 C 80 91.41 76.41 95 72 95 L 18 95 C 13.59 95 10 91.41 10 87 L 10 13 C 10 8.59 13.59 5 18 5 L 72 5 C 76.41 5 80 8.59 80 13 L 80 28 C 80 29.1 79.1 30 78 30 Z" transform="matrix(-1, 0, 0, -1, 99.987505, 100.000001)" style="fill: rgb(245, 238, 13);"/>
</svg>