<?xml version="1.0" encoding="utf-8"?>
<svg version="1.1" id="Layer_1" x="0px" y="0px" viewBox="0 0 100 100" style="enable-background:new 0 0 100 100;" xmlns="http://www.w3.org/2000/svg">
  <path d="M 9 48 L 27 48 L 27 52 L 9 52 C 7.9 52 7 51.1 7 50 C 7 48.9 7.9 48 9 48 Z M 89 9 L 35 9 C 32.79 9 31 10.79 31 13 L 31 48 L 80.17 48 L 73 40.83 L 71.59 39.41 C 70.8 38.63 70.8 37.37 71.59 36.59 C 72.37 35.8 73.63 35.8 74.41 36.59 L 86.41 48.58 C 86.51 48.68 86.59 48.78 86.66 48.89 C 86.7 48.94 86.72 48.99 86.75 49.04 C 86.78 49.11 86.82 49.17 86.85 49.24 C 86.87 49.3 86.89 49.37 86.91 49.44 C 86.93 49.49 86.95 49.55 86.96 49.61 C 86.99 49.74 87 49.87 87 50 C 87 50.13 86.99 50.26 86.96 50.39 C 86.95 50.45 86.93 50.51 86.91 50.56 C 86.89 50.63 86.87 50.7 86.85 50.76 C 86.82 50.83 86.78 50.89 86.75 50.96 C 86.72 51.01 86.7 51.06 86.66 51.11 C 86.59 51.22 86.51 51.32 86.41 51.42 L 74.41 63.41 C 74.02 63.8 73.51 64 73 64 C 72.49 64 71.98 63.8 71.59 63.41 C 70.8 62.63 70.8 61.37 71.59 60.59 L 73 59.17 L 80.17 52 L 31 52 L 31 87 C 31 89.21 32.79 91 35 91 L 89 91 C 91.21 91 93 89.21 93 87 L 93 13 C 93 10.79 91.21 9 89 9 Z" transform="matrix(-1, 0, 0, -1, 99.999983, 100.000017)" style="fill: rgb(255, 255, 255);"/>
</svg>