<?xml version="1.0" encoding="utf-8"?>
<!-- Generator: Adobe Illustrator 23.0.1, SVG Export Plug-In . SVG Version: 6.00 Build 0)  -->
<svg version="1.1" id="Layer_1" xmlns="http://www.w3.org/2000/svg" xmlns:xlink="http://www.w3.org/1999/xlink" x="0px" y="0px"
	 viewBox="0 0 100 100" style="enable-background:new 0 0 100 100;" xml:space="preserve">
<path d="M88.3,20.9C85.5,12.1,77.7,5.5,69.3,5c-0.5,0-0.9,0-1.4,0C61.1,5,54.5,8,50,13.1C45.5,8,38.9,5,32.1,5c-0.5,0-1,0-1.4,0
	c-8.3,0.5-16.1,7-19,15.9c-1.7,5.3-4,18.9,11.9,31.8l7.4,5.9v19C28.9,76,26.1,75,23,75c-6.6,0-12,4.5-12,10s5.4,10,12,10
	s12-4.5,12-10V61.7l13.8,10.9c0.4,0.3,0.8,0.4,1.2,0.4s0.9-0.1,1.2-0.4L73,55.4v18.2C70.9,72,68.1,71,65,71c-6.6,0-12,4.5-12,10
	s5.4,10,12,10s12-4.5,12-10V52.2C92.2,39.4,90,26.1,88.3,20.9z M23,91c-4.4,0-8-2.7-8-6s3.6-6,8-6s8,2.7,8,6S27.4,91,23,91z M65,87
	c-4.4,0-8-2.7-8-6s3.6-6,8-6s8,2.7,8,6S69.4,87,65,87z M73,50.3L50,68.5L35,56.6v-6l38-9V50.3z M73,37.4l-38,9v-5.9l38-9V37.4z
	 M77,46.8V29c0-0.6-0.3-1.2-0.8-1.6s-1.1-0.5-1.7-0.4l-42,10c-0.9,0.2-1.5,1-1.5,2v14.5l-4.9-3.9c-9.8-8-13.7-18-10.6-27.4
	C17.9,14.8,24.2,9.4,30.9,9c0.4,0,0.8,0,1.2,0c6.4,0,12.5,3.2,16.3,8.5c0.4,0.5,1,0.8,1.6,0.8s1.2-0.3,1.6-0.8
	C55.4,12.2,61.5,9,67.9,9c0.4,0,0.8,0,1.2,0c6.7,0.4,13,5.8,15.4,13.1C87.2,30.5,84.5,39.3,77,46.8z"/>
</svg>
