<?xml version="1.0" encoding="utf-8"?>
<svg viewBox="0 0 100 100" style="enable-background:new 0 0 100 100;" xmlns="http://www.w3.org/2000/svg">
  <path d="M93,33h-6v-6c0-1.1-0.9-2-2-2h-6v-6c0-1.1-0.9-2-2-2H23c-1.1,0-2,0.9-2,2v6h-6c-1.1,0-2,0.9-2,2v6H7c-1.1,0-2,0.9-2,2v30 c0,1.1,0.9,2,2,2h6v6c0,1.1,0.9,2,2,2h6v6c0,1.1,0.9,2,2,2h54c1.1,0,2-0.9,2-2v-6h6c1.1,0,2-0.9,2-2v-6h6c1.1,0,2-0.9,2-2V35 C95,33.9,94.1,33,93,33z M13,63H9V37h4V63z M21,71h-4V29h4V71z M75,79H25V21h50V79z M83,71h-4V29h4V71z M91,63h-4V37h4V63z M38,71 c4.96,0,9-3.59,9-8V46.56l20-5v8.79C65.57,49.5,63.85,49,62,49c-4.96,0-9,3.59-9,8c0,4.41,4.04,8,9,8s9-3.59,9-8V31 c0-0.62-0.28-1.2-0.77-1.58c-0.48-0.38-1.12-0.51-1.72-0.36l-23.99,6C43.62,35.28,43,36.08,43,37v19.35C41.57,55.5,39.85,55,38,55 c-4.96,0-9,3.59-9,8C29,67.41,33.04,71,38,71z M62,61c-2.76,0-5-1.79-5-4c0-2.21,2.24-4,5-4s5,1.79,5,4C67,59.21,64.76,61,62,61z M47,38.56l20-5v3.88l-20,5V38.56z M38,59c2.76,0,5,1.79,5,4c0,2.21-2.24,4-5,4s-5-1.79-5-4C33,60.79,35.24,59,38,59z" style="fill: rgb(245, 238, 13);"/>
</svg>