<?xml version="1.0" encoding="utf-8"?>
<!-- Generator: Adobe Illustrator 23.0.1, SVG Export Plug-In . SVG Version: 6.00 Build 0)  -->
<svg version="1.1" id="Layer_1" xmlns="http://www.w3.org/2000/svg" xmlns:xlink="http://www.w3.org/1999/xlink" x="0px" y="0px"
	 viewBox="0 0 100 100" style="enable-background:new 0 0 100 100;" xml:space="preserve">
<path d="M5,10c0-1.1,0.9-2,2-2h56c1.1,0,2,0.9,2,2s-0.9,2-2,2H7C5.9,12,5,11.1,5,10z M7,32h56c1.1,0,2-0.9,2-2s-0.9-2-2-2H7
	c-1.1,0-2,0.9-2,2S5.9,32,7,32z M7,52h56c1.1,0,2-0.9,2-2s-0.9-2-2-2H7c-1.1,0-2,0.9-2,2S5.9,52,7,52z M43,68H7c-1.1,0-2,0.9-2,2
	s0.9,2,2,2h36c1.1,0,2-0.9,2-2S44.1,68,43,68z M43,88H7c-1.1,0-2,0.9-2,2s0.9,2,2,2h36c1.1,0,2-0.9,2-2S44.1,88,43,88z M94.4,68.6
	c-0.8-0.8-2-0.8-2.8,0L75,85.2V10c0-1.1-0.9-2-2-2s-2,0.9-2,2v75.2L54.4,68.6c-0.8-0.8-2-0.8-2.8,0s-0.8,2,0,2.8l20,20
	c0.1,0.1,0.2,0.2,0.3,0.3c0,0,0.1,0.1,0.1,0.1c0.1,0,0.1,0.1,0.2,0.1c0.1,0,0.1,0,0.2,0.1c0.1,0,0.1,0,0.2,0.1c0.1,0,0.3,0,0.4,0
	s0.3,0,0.4,0c0.1,0,0.1,0,0.2-0.1c0.1,0,0.1,0,0.2-0.1c0.1,0,0.1-0.1,0.2-0.1c0,0,0.1,0,0.1-0.1c0.1-0.1,0.2-0.2,0.3-0.3l20-20
	C95.2,70.6,95.2,69.4,94.4,68.6z"/>
</svg>
