<?xml version="1.0" encoding="utf-8"?>
<svg version="1.1" id="Layer_1" x="0px" y="0px" viewBox="0 0 100 100" style="enable-background:new 0 0 100 100;" xmlns="http://www.w3.org/2000/svg">
  <g>
    <path d="M89,5H11c-3.3,0-6,2.7-6,6v78c0,3.3,2.7,6,6,6h78c3.3,0,6-2.7,6-6V11C95,7.7,92.3,5,89,5z M91,89c0,1.1-0.9,2-2,2H11 c-1.1,0-2-0.9-2-2V25h82V89z M91,21H9V11c0-1.1,0.9-2,2-2h78c1.1,0,2,0.9,2,2V21z" style="fill: rgb(255, 255, 255);"/>
    <circle cx="17" cy="15" r="2" style="fill: rgb(255, 255, 255);"/>
    <circle cx="27" cy="15" r="2" style="fill: rgb(255, 255, 255);"/>
    <circle cx="37" cy="15" r="2" style="fill: rgb(255, 255, 255);"/>
    <path d="M25.5,48.2c1.8,1.9,3.8,2.7,5.6,3.4c0.7,0.3,1.9,0.7,3.7,1c2.1,0.5,4.3,0.8,6.6,0.8h0.1c0.8,0,1.5-0.5,1.8-1.2 c0.9-2.1,1.7-4.2,2.2-6.3c0.3-1.4,0.6-2.7,0.7-3.7c0.2-1.9,0.4-4.1-0.5-6.5c-0.5-1.2-1.1-2.2-1.9-2.9c-0.4-0.4-1.6-1.5-3.6-1.8 c-1.8-0.2-3.2,0.4-3.6,0.6c-1.7,0.8-3,2.3-3.8,4.2c-0.2,0.4-0.3,0.7-0.4,1.1c-0.3-0.1-0.7-0.1-1.1-0.2c-2.1-0.2-4,0.4-5.5,1.5 c-0.4,0.3-1.6,1.3-2.2,3c-0.6,1.9-0.1,3.5,0,4C24,46.2,24.7,47.3,25.5,48.2z M27.5,42.5c0.2-0.6,0.6-0.9,0.9-1.1 c0.6-0.5,1.3-0.7,2.2-0.7c0.1,0,0.3,0,0.4,0c1,0.1,1.7,0.5,2.2,0.8c0.7,0.5,1.5,0.5,2.2,0.1c0.7-0.4,1.1-1.2,0.9-2 c-0.1-0.5-0.1-1.4,0.2-2.3c0.4-1,1-1.7,1.8-2c0.3-0.1,0.8-0.4,1.4-0.3c0.7,0.1,1.1,0.5,1.4,0.7c0.1,0.1,0.5,0.5,0.9,1.5 c0.6,1.5,0.5,2.7,0.3,4.7c-0.1,0.9-0.3,2-0.6,3.2c-0.4,1.5-0.8,2.9-1.4,4.4c-1.5-0.1-3.1-0.4-4.5-0.7C34,48.3,33,48,32.5,47.8 c-1.8-0.7-3-1.2-4.1-2.3c-0.7-0.7-0.9-1.3-0.9-1.4C27.5,43.8,27.3,43.2,27.5,42.5z" style="fill: rgb(255, 255, 255);"/>
    <path d="M54.6,73.1h16c3.3,0,6-2.7,6-6v-6c0-4.7-2.4-8.9-6-11.5c1.8-2,3-4.6,3-7.5c0-6.1-4.9-11-11-11c-6.1,0-11,4.9-11,11 c0,2.9,1.1,5.6,3,7.5c-3.6,2.5-6,6.7-6,11.5v6C48.6,70.4,51.3,73.1,54.6,73.1z M62.6,35.1c3.9,0,7,3.1,7,7s-3.1,7-7,7s-7-3.1-7-7 S58.8,35.1,62.6,35.1z M52.6,61.1c0-3.9,2.3-7.3,5.5-8.9c1.4,0.6,2.9,0.9,4.5,0.9s3.1-0.3,4.4-0.9c3.3,1.6,5.6,5,5.6,8.9v6 c0,1.1-0.9,2-2,2h-16c-1.1,0-2-0.9-2-2V61.1z" style="fill: rgb(255, 255, 255);"/>
    <path d="M17,83h6.3c0.8,2.3,3,4,5.7,4h6c2.6,0,4.8-1.7,5.7-4H83c1.1,0,2-0.9,2-2c0-1.1-0.9-2-2-2H40.7c-0.8-2.3-3-4-5.7-4h-6 c-2.6,0-4.8,1.7-5.7,4H17c-1.1,0-2,0.9-2,2C15,82.1,15.9,83,17,83z M29,79h6c1.1,0,2,0.9,2,2c0,1.1-0.9,2-2,2h-6c-1.1,0-2-0.9-2-2 C27,79.9,27.9,79,29,79z" style="fill: rgb(255, 255, 255);"/>
  </g>
</svg>