<?xml version="1.0" encoding="utf-8"?>
<svg version="1.1" id="Layer_1" x="0px" y="0px" viewBox="0 0 100 100" style="enable-background:new 0 0 100 100;" xmlns="http://www.w3.org/2000/svg">
  <g>
    <path d="M73,59.3c5.9-4.2,9.9-11.8,9.9-20.3c0-13.2-9.4-24-21-24c-4.6,0-8.8,1.7-12.3,4.6C45.3,8.7,33.4,2.7,22,5.8 c-5.9,1.7-10.8,5.5-13.8,10.9c-3,5.4-3.8,11.5-2.1,17.5C7.7,40.1,11.5,45,16.9,48c3.5,2,7.3,3,11.2,3c2.1,0,4.2-0.3,6.2-0.9 c1.5-0.4,3-1,4.4-1.7c1.4,0.8,3,1.4,4.5,1.8c1.7,3.7,4.3,6.9,7.4,9.1c-12.4,2-21.9,12.7-21.9,25.7v4c0,3.3,2.7,6,6,6h54 c3.3,0,6-2.7,6-6v-4C94.8,72.1,85.4,61.3,73,59.3z M39.9,44.4c-0.6-0.4-1.4-0.4-2.1-0.1c-1.4,0.8-2.9,1.5-4.5,1.9 c-10.1,2.8-20.6-3.1-23.4-13.2c-1.4-4.9-0.8-10,1.7-14.4s6.5-7.6,11.4-9C24.7,9.2,26.5,9,28.1,9c8.3,0,16,5.5,18.3,13.9 c1.3,4.7,0.8,9.6-1.5,13.9c-0.3,0.6-0.3,1.3,0,1.9c1.5,2.8,3.4,5.3,5.6,7.6C46.9,47.2,43,46.5,39.9,44.4z M48.1,50.6 c1.3,0,2.7-0.2,4-0.6l3-0.8c0.7-0.2,1.3-0.8,1.4-1.5c0.2-0.7-0.1-1.5-0.7-2c-2.7-2.3-5-5-6.8-8.1c2-4.3,2.6-9.2,1.8-13.8 c3-3,6.8-4.9,11.1-4.9c9.4,0,17,9,17,20c0,11-7.6,20-17,20C56.2,59,51.1,55.7,48.1,50.6z M90.8,89c0,1.1-0.9,2-2,2h-54 c-1.1,0-2-0.9-2-2v-4c0-12.1,9.9-22,22-22h14c12.1,0,22,9.9,22,22V89z" style="fill: rgb(245, 238, 13);"/>
    <path d="M29.8,14h-5c-3.3,0-6,2.7-6,6c0,1.1,0.9,2,2,2s2-0.9,2-2c0-1.1,0.9-2,2-2h5c1.7,0,3,1.3,3,3c0,1.6-1.3,3-3,3h-2 c-1.1,0-2,0.9-2,2v6c0,1.1,0.9,2,2,2s2-0.9,2-2v-4c3.9,0,7-3.1,7-7S33.7,14,29.8,14z" style="fill: rgb(245, 238, 13);"/>
    <circle cx="27.8" cy="40" r="2" style="fill: rgb(245, 238, 13);"/>
  </g>
</svg>