<?xml version="1.0" encoding="utf-8"?>
<!-- Generator: Adobe Illustrator 21.0.2, SVG Export Plug-In . SVG Version: 6.00 Build 0)  -->
<svg version="1.1" id="Layer_1" xmlns="http://www.w3.org/2000/svg" xmlns:xlink="http://www.w3.org/1999/xlink" x="0px" y="0px"
	 viewBox="0 0 100 100" style="enable-background:new 0 0 100 100;" xml:space="preserve">
<g>
	<path d="M50,35c-8.3,0-15,6.7-15,15c0,8.3,6.7,15,15,15s15-6.7,15-15C65,41.7,58.3,35,50,35z M50,61c-6.1,0-11-4.9-11-11
		s4.9-11,11-11s11,4.9,11,11S56.1,61,50,61z"/>
	<path d="M50,44c-3.3,0-6,2.7-6,6s2.7,6,6,6s6-2.7,6-6S53.3,44,50,44z M50,52c-1.1,0-2-0.9-2-2c0-1.1,0.9-2,2-2s2,0.9,2,2
		C52,51.1,51.1,52,50,52z"/>
	<path d="M50,19c1.1,0,2-0.9,2-2c0-1.1-0.9-2-2-2c-13.4,0-25.8,7.8-31.6,19.9c-0.5,1-0.1,2.2,0.9,2.7c0.3,0.1,0.6,0.2,0.9,0.2
		c0.7,0,1.5-0.4,1.8-1.1C27.2,25.9,38.1,19,50,19z"/>
	<path d="M50,29c1.1,0,2-0.9,2-2c0-1.1-0.9-2-2-2c-9.5,0-18.4,5.5-22.5,14.1c-0.5,1-0.1,2.2,0.9,2.7c0.3,0.1,0.6,0.2,0.9,0.2
		c0.8,0,1.5-0.4,1.8-1.1C34.6,33.7,42,29,50,29z"/>
	<path d="M91.5,67.3C93.8,62,95,56.1,95,50C95,25.2,74.8,5,50,5S5,25.2,5,50s20.2,45,45,45c7.5,0,14.6-1.9,20.8-5.1l3.8,3.5
		c0.4,0.3,0.9,0.5,1.3,0.5s1-0.2,1.3-0.5l13.4-12.2c2.9-2.7,4-6.8,2.7-10.6C93,69.3,92.3,68.2,91.5,67.3z M88.1,78.2L76,89.2
		L63.9,78.2c-2.1-1.9-2.2-4.5-1.6-6.4c0.8-2.2,2.6-3.6,4.8-3.8c0.2,0,0.4,0,0.5,0c2.7,0,5.2,1.5,6.6,3.8c0.3,0.6,1,1,1.7,1
		s1.4-0.4,1.7-1c1.4-2.4,3.9-3.8,6.6-3.8c0.2,0,0.4,0,0.5,0c2.3,0.1,4.1,1.6,4.8,3.8C90.3,73.7,90.2,76.3,88.1,78.2z M88.2,64.9
		c-1-0.4-2-0.7-3.1-0.8c-0.3,0-0.5,0-0.8,0c-3.1,0-6.1,1.3-8.3,3.5c-2.2-2.2-5.1-3.5-8.3-3.5c-0.3,0-0.5,0-0.8,0
		c-3.9,0.3-7.1,2.7-8.3,6.4c-1.3,3.8-0.3,8,2.7,10.6l6.4,5.8c-5.4,2.6-11.3,4-17.6,4C27.4,91,9,72.6,9,50S27.4,9,50,9s41,18.4,41,41
		C91,55.3,90,60.3,88.2,64.9z"/>
</g>
</svg>
