<?xml version="1.0" encoding="utf-8"?>
<!-- Generator: Adobe Illustrator 23.0.1, SVG Export Plug-In . SVG Version: 6.00 Build 0)  -->
<svg version="1.1" id="Layer_1" xmlns="http://www.w3.org/2000/svg" xmlns:xlink="http://www.w3.org/1999/xlink" x="0px" y="0px"
	 viewBox="0 0 100 100" style="enable-background:new 0 0 100 100;" xml:space="preserve">
<path d="M61.76,5.25c-18.2,0-33,14.8-33,33c0,6.57,1.94,12.69,5.26,17.84L7.29,82.81c-1.32,1.32-2.05,3.08-2.05,4.95
	s0.73,3.62,2.05,4.95c1.37,1.36,3.16,2.04,4.95,2.04c1.8,0,3.59-0.68,4.95-2.04l26.72-26.72c5.15,3.32,11.27,5.26,17.84,5.26
	c18.2,0,33-14.8,33-33S79.96,5.25,61.76,5.25z M14.38,89.88c-1.18,1.16-3.08,1.16-4.25,0c-0.56-0.57-0.88-1.32-0.88-2.12
	c0-0.8,0.32-1.56,0.88-2.13l26.28-26.28c1.29,1.54,2.71,2.96,4.25,4.25L14.38,89.88z M61.76,67.25c-15.99,0-29-13.01-29-29
	s13.01-29,29-29s29,13.01,29,29S77.74,67.25,61.76,67.25z M73.76,29.91c0.13,5.01-2.76,9.49-7.38,11.42
	c-1.59,0.66-2.62,2.14-2.62,3.75v3.17c0,1.1-0.9,2-2,2s-2-0.9-2-2v-3.17c0-0.13,0.02-0.25,0.03-0.38c0.15-3.08,2.08-5.83,5.05-7.06
	c3.08-1.29,5.01-4.28,4.92-7.62c-0.12-4.17-3.6-7.65-7.77-7.77c-2.17-0.05-4.25,0.75-5.81,2.26c-1.56,1.52-2.42,3.56-2.42,5.74
	c0,0.75-0.42,1.4-1.03,1.74c-0.29,0.16-0.62,0.26-0.97,0.26c-1.1,0-2-0.9-2-2c0-3.27,1.29-6.32,3.63-8.6
	c2.35-2.28,5.42-3.5,8.71-3.4C68.35,18.43,73.58,23.66,73.76,29.91z M63.16,54.84c0.38,0.37,0.59,0.88,0.59,1.41
	c0,0.27-0.05,0.52-0.15,0.77c-0.1,0.24-0.25,0.46-0.44,0.64c-0.38,0.38-0.88,0.59-1.41,0.59s-1.04-0.21-1.41-0.59
	c-0.19-0.18-0.34-0.4-0.44-0.64c-0.1-0.25-0.15-0.5-0.15-0.77c0-0.53,0.21-1.04,0.59-1.41C61.09,54.09,62.42,54.09,63.16,54.84z"/>
</svg>
