<?xml version="1.0" encoding="utf-8"?>
<svg version="1.1" id="Layer_1" x="0px" y="0px" viewBox="0 0 100 100" style="enable-background:new 0 0 100 100;" xmlns="http://www.w3.org/2000/svg">
  <path d="M50,56c5,0,9-4,9-9c0-5-4-9-9-9s-9,4-9,9C41,52,45,56,50,56z M50,42c2.8,0,5,2.2,5,5s-2.2,5-5,5s-5-2.2-5-5S47.2,42,50,42z M51.7,59h-3.4C40.4,59,34,65.4,34,73.3c0,2,1.7,3.7,3.7,3.7h24.6c2,0,3.7-1.7,3.7-3.7C66,65.4,59.6,59,51.7,59z M38,73 c0.2-5.5,4.7-10,10.3-10h3.4c5.6,0,10.1,4.5,10.3,10H38z M71,51c4.4,0,8-3.6,8-8s-3.6-8-8-8s-8,3.6-8,8S66.6,51,71,51z M71,39 c2.2,0,4,1.8,4,4s-1.8,4-4,4s-4-1.8-4-4S68.8,39,71,39z M86,68.9c0,2-1.6,3.6-3.6,3.6H70c-1.1,0-2-0.9-2-2s0.9-2,2-2h12 c-0.2-5-4.4-9-9.4-9h-3.1c-1.5,0-2.9,0.3-4.3,1c-1,0.5-2.2,0.1-2.7-0.9c-0.5-1-0.1-2.2,0.9-2.7c1.9-1,4-1.5,6.1-1.5h3.1 C80,55.5,86,61.5,86,68.9z M29,51c4.4,0,8-3.6,8-8s-3.6-8-8-8s-8,3.6-8,8S24.6,51,29,51z M29,39c2.2,0,4,1.8,4,4s-1.8,4-4,4 s-4-1.8-4-4S26.8,39,29,39z M32,70.5c0,1.1-0.9,2-2,2H17.6c-2,0-3.6-1.6-3.6-3.6c0-7.4,6-13.4,13.4-13.4h3.1c2.1,0,4.2,0.5,6.1,1.5 c1,0.5,1.4,1.7,0.9,2.7c-0.5,1-1.7,1.4-2.7,0.9c-1.3-0.7-2.8-1-4.3-1h-3.1c-5.1,0-9.2,4-9.4,9h12C31.1,68.5,32,69.4,32,70.5z M85,13 H59c-1.1,0-2,0.9-2,2s0.9,2,2,2h26c3.3,0,6,2.7,6,6v0c-1.7-1.3-3.7-2-6-2H53v-3.6C53,12.2,48.5,8,43,8H15C9.5,8,5,12.2,5,17.4V90 c0,1.1,0.9,2,2,2h86c1.1,0,2-0.9,2-2v-1V31v-8C95,17.5,90.5,13,85,13z M9,17.4c0-3,2.7-5.4,6-5.4h28c3.3,0,6,2.4,6,5.4V23 c0,1.1,0.9,2,2,2h34c3.3,0,6,2.7,6,6v57H9V17.4z" style="fill: rgb(245, 238, 13);"/>
</svg>