<?xml version="1.0" encoding="utf-8"?>
<!-- Generator: Adobe Illustrator 21.0.2, SVG Export Plug-In . SVG Version: 6.00 Build 0)  -->
<svg version="1.1" id="Layer_1" xmlns="http://www.w3.org/2000/svg" xmlns:xlink="http://www.w3.org/1999/xlink" x="0px" y="0px"
	 viewBox="0 0 100 100" style="enable-background:new 0 0 100 100;" xml:space="preserve">
<path d="M52,65v28c0,1.1-0.9,2-2,2s-2-0.9-2-2V65c0-1.1,0.9-2,2-2S52,63.9,52,65z M60,27c-1.1,0-2,0.9-2,2v64c0,1.1,0.9,2,2,2
	s2-0.9,2-2V29C62,27.9,61.1,27,60,27z M70,5c-1.1,0-2,0.9-2,2v86c0,1.1,0.9,2,2,2s2-0.9,2-2V7C72,5.9,71.1,5,70,5z M80,53
	c-1.1,0-2,0.9-2,2v38c0,1.1,0.9,2,2,2s2-0.9,2-2V55C82,53.9,81.1,53,80,53z M90,39c-1.1,0-2,0.9-2,2v52c0,1.1,0.9,2,2,2s2-0.9,2-2
	V41C92,39.9,91.1,39,90,39z M10,39c-1.1,0-2,0.9-2,2v52c0,1.1,0.9,2,2,2s2-0.9,2-2V41C12,39.9,11.1,39,10,39z M20,53
	c-1.1,0-2,0.9-2,2v38c0,1.1,0.9,2,2,2s2-0.9,2-2V55C22,53.9,21.1,53,20,53z M30,5c-1.1,0-2,0.9-2,2v86c0,1.1,0.9,2,2,2s2-0.9,2-2V7
	C32,5.9,31.1,5,30,5z M40,27c-1.1,0-2,0.9-2,2v64c0,1.1,0.9,2,2,2s2-0.9,2-2V29C42,27.9,41.1,27,40,27z"/>
</svg>
