<?xml version="1.0" standalone="no"?><svg xmlns="http://www.w3.org/2000/svg" viewBox="0 0 1440 320"><path fill="#ffd700" fill-opacity="1" d="M0,320L6.2,277.3C12.3,235,25,149,37,117.3C49.2,85,62,107,74,101.3C86.2,96,98,64,111,96C123.1,128,135,224,148,224C160,224,172,128,185,90.7C196.9,53,209,75,222,117.3C233.8,160,246,224,258,245.3C270.8,267,283,245,295,245.3C307.7,245,320,267,332,272C344.6,277,357,267,369,229.3C381.5,192,394,128,406,117.3C418.5,107,431,149,443,192C455.4,235,468,277,480,288C492.3,299,505,277,517,250.7C529.2,224,542,192,554,192C566.2,192,578,224,591,250.7C603.1,277,615,299,628,282.7C640,267,652,213,665,181.3C676.9,149,689,139,702,112C713.8,85,726,43,738,48C750.8,53,763,107,775,112C787.7,117,800,75,812,90.7C824.6,107,837,181,849,181.3C861.5,181,874,107,886,112C898.5,117,911,203,923,202.7C935.4,203,948,117,960,80C972.3,43,985,53,997,90.7C1009.2,128,1022,192,1034,208C1046.2,224,1058,192,1071,197.3C1083.1,203,1095,245,1108,234.7C1120,224,1132,160,1145,165.3C1156.9,171,1169,245,1182,272C1193.8,299,1206,277,1218,245.3C1230.8,213,1243,171,1255,144C1267.7,117,1280,107,1292,122.7C1304.6,139,1317,181,1329,170.7C1341.5,160,1354,96,1366,101.3C1378.5,107,1391,181,1403,181.3C1415.4,181,1428,107,1434,69.3L1440,32L1440,320L1433.8,320C1427.7,320,1415,320,1403,320C1390.8,320,1378,320,1366,320C1353.8,320,1342,320,1329,320C1316.9,320,1305,320,1292,320C1280,320,1268,320,1255,320C1243.1,320,1231,320,1218,320C1206.2,320,1194,320,1182,320C1169.2,320,1157,320,1145,320C1132.3,320,1120,320,1108,320C1095.4,320,1083,320,1071,320C1058.5,320,1046,320,1034,320C1021.5,320,1009,320,997,320C984.6,320,972,320,960,320C947.7,320,935,320,923,320C910.8,320,898,320,886,320C873.8,320,862,320,849,320C836.9,320,825,320,812,320C800,320,788,320,775,320C763.1,320,751,320,738,320C726.2,320,714,320,702,320C689.2,320,677,320,665,320C652.3,320,640,320,628,320C615.4,320,603,320,591,320C578.5,320,566,320,554,320C541.5,320,529,320,517,320C504.6,320,492,320,480,320C467.7,320,455,320,443,320C430.8,320,418,320,406,320C393.8,320,382,320,369,320C356.9,320,345,320,332,320C320,320,308,320,295,320C283.1,320,271,320,258,320C246.2,320,234,320,222,320C209.2,320,197,320,185,320C172.3,320,160,320,148,320C135.4,320,123,320,111,320C98.5,320,86,320,74,320C61.5,320,49,320,37,320C24.6,320,12,320,6,320L0,320Z"></path></svg>