<?xml version="1.0" encoding="utf-8"?>
<svg version="1.1" id="Layer_1" x="0px" y="0px" viewBox="0 0 100 100" style="enable-background:new 0 0 100 100;" xmlns="http://www.w3.org/2000/svg">
  <g>
    <path d="M69,5h-2c-3.2,0-5.8,2.5-6,5.6l-3.9,1.5c-11.7,4.6-23.9,7.1-36.4,7.7c-3.2,0.1-5.7,2.8-5.7,6V26h-4c-3.3,0-6,2.7-6,6v10 c0,3.3,2.7,6,6,6h4v0.2c0,2.6,1.7,4.8,4,5.7V89c0,3.3,2.7,6,6,6h9.3c1.8,0,3.4-0.8,4.5-2.1c1.1-1.3,1.6-3.1,1.4-4.8L38.9,79h1.4 c1.8,0,3.4-0.8,4.6-2.1c1.1-1.3,1.6-3.1,1.3-4.9l-0.7-4c-0.5-2.9-3-5-5.9-5h-3.2l-1.1-7.2c7.5,1.3,14.8,3.3,21.9,6.1l3.9,1.5 c0.2,3.1,2.8,5.6,6,5.6h2c3.3,0,6-2.7,6-6V11C75,7.7,72.3,5,69,5z M15,44h-4c-1.1,0-2-0.9-2-2V32c0-1.1,0.9-2,2-2h4V44z M39.6,67 c1,0,1.8,0.7,2,1.7l0.7,4c0.1,0.6-0.1,1.2-0.5,1.6c-0.4,0.5-0.9,0.7-1.5,0.7h-2L37,67H39.6z M36.3,88.7c0.1,0.6-0.1,1.1-0.5,1.6 c-0.4,0.5-0.9,0.7-1.5,0.7H25c-1.1,0-2-0.9-2-2V54.3c2.7,0.2,5.5,0.4,8.2,0.8L36.3,88.7z M37,52c-5.3-1-10.7-1.6-16.1-1.8 c-1.1,0-1.9-0.9-1.9-2V44h8c1.1,0,2-0.9,2-2s-0.9-2-2-2h-8v-6h8c1.1,0,2-0.9,2-2s-0.9-2-2-2h-8v-4.2c0-1.1,0.8-2,1.9-2 C26.3,23.6,31.7,23,37,22V52z M61,59.1l-2.4-0.9c-5.7-2.2-11.6-4-17.6-5.3V21.2c6-1.3,11.9-3.1,17.6-5.3l2.4-0.9V59.1z M71,63 c0,1.1-0.9,2-2,2h-2c-1.1,0-2-0.9-2-2V11c0-1.1,0.9-2,2-2h2c1.1,0,2,0.9,2,2V63z" style="fill: rgb(245, 238, 13);"/>
    <path d="M93,35H83c-1.1,0-2,0.9-2,2s0.9,2,2,2h10c1.1,0,2-0.9,2-2S94.1,35,93,35z" style="fill: rgb(245, 238, 13);"/>
    <path d="M84.9,46.1c-0.8-0.8-2-0.8-2.8,0c-0.8,0.8-0.8,2,0,2.8l7.1,7.1c0.4,0.4,0.9,0.6,1.4,0.6s1-0.2,1.4-0.6c0.8-0.8,0.8-2,0-2.8 L84.9,46.1z" style="fill: rgb(245, 238, 13);"/>
    <path d="M83.5,28.5c0.5,0,1-0.2,1.4-0.6l7.1-7.1c0.8-0.8,0.8-2,0-2.8c-0.8-0.8-2-0.8-2.8,0l-7.1,7.1c-0.8,0.8-0.8,2,0,2.8 C82.4,28.3,83,28.5,83.5,28.5z" style="fill: rgb(245, 238, 13);"/>
  </g>
</svg>