<?xml version="1.0" encoding="utf-8"?>
<svg version="1.1" id="Layer_1" x="0px" y="0px" viewBox="0 0 100 100" style="enable-background:new 0 0 100 100;" xmlns="http://www.w3.org/2000/svg">
  <g transform="matrix(-1, 0, 0, 1, 99.956703, 0)">
    <path d="M35,29.2v7.4c1.2,1.5,2,3.5,2,5.6c0,5-4,9-9,9s-9-4-9-9c0-2.1,0.8-4.1,2-5.6V24c-0.8,0.4-1.5,1-1.9,1.9L7.6,49.2 c-1,2-0.2,4.4,1.8,5.3l26.9,13.2l15-30.5L35,29.2z" style="fill: rgb(255, 255, 255);"/>
    <path d="M31,33.7V9.2c0-1.1-0.9-2-2-2h-2c-1.1,0-2,0.9-2,2v24.5c0.9-0.3,2-0.5,3-0.5S30.1,33.4,31,33.7z" style="fill: rgb(255, 255, 255);"/>
    <polygon points="55.3,38.1 39.6,70.3 47.1,82.3 69.4,36.7 &#9;" style="fill: rgb(255, 255, 255);"/>
    <path d="M69,64.8c2.2-4.5,0.3-9.9-4.1-12L57,68.9C61.4,71.1,66.8,69.2,69,64.8z" style="fill: rgb(255, 255, 255);"/>
    <circle cx="28" cy="42.2" r="5" style="fill: rgb(255, 255, 255);"/>
    <path d="M89.6,72.6l-9-4.4c-1-0.5-2.2-0.1-2.7,0.9c-0.5,1-0.1,2.2,0.9,2.7l9,4.4c0.3,0.1,0.6,0.2,0.9,0.2c0.7,0,1.5-0.4,1.8-1.1 C91,74.2,90.5,73,89.6,72.6z" style="fill: rgb(255, 255, 255);"/>
    <path d="M69.6,80.7c-0.4-1-1.5-1.6-2.5-1.2c-1,0.4-1.6,1.5-1.2,2.5l3.3,9.5c0.3,0.8,1.1,1.4,1.9,1.4c0.2,0,0.4,0,0.7-0.1 c1-0.4,1.6-1.5,1.2-2.5L69.6,80.7z" style="fill: rgb(255, 255, 255);"/>
    <path d="M92.7,49.7c-0.4-1-1.5-1.6-2.5-1.2l-9.5,3.3c-1,0.4-1.6,1.5-1.2,2.5c0.3,0.8,1.1,1.4,1.9,1.4c0.2,0,0.4,0,0.7-0.1l9.5-3.3 C92.5,51.8,93,50.7,92.7,49.7z" style="fill: rgb(255, 255, 255);"/>
  </g>
</svg>