<?xml version="1.0" encoding="utf-8"?>
<!-- Generator: Adobe Illustrator 21.0.2, SVG Export Plug-In . SVG Version: 6.00 Build 0)  -->
<svg version="1.1" id="Layer_1" xmlns="http://www.w3.org/2000/svg" xmlns:xlink="http://www.w3.org/1999/xlink" x="0px" y="0px"
	 viewBox="0 0 100 100" style="enable-background:new 0 0 100 100;" xml:space="preserve">
<g>
	<path d="M74.6,34.3l-18.2,1.9L37,26.7V11.2c0-3.3-2.7-6-6-6h-2c-3.3,0-6,2.7-6,6v10.6c-2.3,0.5-4.4,2-5.5,4.3L6,49.4
		c-1.9,4-0.3,8.8,3.7,10.7l28.2,13.8l9.7,15.5c0.4,0.6,1,0.9,1.7,0.9h0.1c0.7,0,1.4-0.5,1.7-1.1l7.1-14.4c1.6,0.6,3.2,0.9,4.8,0.9
		c4.8,0,9.4-2.7,11.7-7.3c3-6.1,0.7-13.5-5.1-16.9l7.1-14.4c0.3-0.7,0.3-1.4-0.2-2C76,34.6,75.3,34.3,74.6,34.3z M27,11.2
		c0-1.1,0.9-2,2-2h2c1.1,0,2,0.9,2,2v24.5c-0.9-0.3-2-0.5-3-0.5s-2.1,0.2-3,0.5V11.2z M30,39.2c2.8,0,5,2.2,5,5s-2.2,5-5,5
		s-5-2.2-5-5S27.2,39.2,30,39.2z M11.5,56.5c-2-1-2.8-3.4-1.8-5.3l11.4-23.3c0.4-0.9,1.1-1.5,1.9-1.9v12.6c-1.2,1.5-2,3.5-2,5.6
		c0,5,4,9,9,9s9-4,9-9c0-2.1-0.8-4.1-2-5.6v-7.4l16.4,8l-15,30.5L11.5,56.5z M71,66.8c-2,4.2-6.9,6-11.1,4.5l7.9-16.1
		C71.6,57.6,73.1,62.6,71,66.8z M49.1,84.3l-7.5-12l15.7-32.1l14.1-1.5L49.1,84.3z"/>
	<path d="M91.6,74.6l-9-4.4c-1-0.5-2.2-0.1-2.7,0.9c-0.5,1-0.1,2.2,0.9,2.7l9,4.4c0.3,0.1,0.6,0.2,0.9,0.2c0.7,0,1.5-0.4,1.8-1.1
		C93,76.2,92.5,75,91.6,74.6z"/>
	<path d="M71.6,82.7c-0.4-1-1.5-1.6-2.5-1.2c-1,0.4-1.6,1.5-1.2,2.5l3.3,9.5c0.3,0.8,1.1,1.4,1.9,1.4c0.2,0,0.4,0,0.7-0.1
		c1-0.4,1.6-1.5,1.2-2.5L71.6,82.7z"/>
	<path d="M94.7,51.7c-0.4-1-1.5-1.6-2.5-1.2l-9.5,3.3c-1,0.4-1.6,1.5-1.2,2.5c0.3,0.8,1.1,1.4,1.9,1.4c0.2,0,0.4,0,0.7-0.1l9.5-3.3
		C94.5,53.8,95,52.7,94.7,51.7z"/>
</g>
</svg>
