<svg id="visual" viewBox="0 0 2560 1440" width="2560" height="1440" xmlns="http://www.w3.org/2000/svg" xmlns:xlink="http://www.w3.org/1999/xlink" version="1.1"><path d="M0 361L111 361L111 375L223 375L223 390L334 390L334 332L445 332L445 347L557 347L557 246L668 246L668 231L779 231L779 534L890 534L890 419L1002 419L1002 203L1113 203L1113 361L1224 361L1224 318L1336 318L1336 203L1447 203L1447 404L1558 404L1558 231L1670 231L1670 462L1781 462L1781 303L1892 303L1892 404L2003 404L2003 260L2115 260L2115 375L2226 375L2226 447L2337 447L2337 476L2449 476L2449 375L2560 375L2560 390L2560 0L2560 0L2449 0L2449 0L2337 0L2337 0L2226 0L2226 0L2115 0L2115 0L2003 0L2003 0L1892 0L1892 0L1781 0L1781 0L1670 0L1670 0L1558 0L1558 0L1447 0L1447 0L1336 0L1336 0L1224 0L1224 0L1113 0L1113 0L1002 0L1002 0L890 0L890 0L779 0L779 0L668 0L668 0L557 0L557 0L445 0L445 0L334 0L334 0L223 0L223 0L111 0L111 0L0 0Z" fill="#25c1a9"></path><path d="M0 505L111 505L111 447L223 447L223 519L334 519L334 462L445 462L445 476L557 476L557 361L668 361L668 347L779 347L779 606L890 606L890 505L1002 505L1002 347L1113 347L1113 462L1224 462L1224 404L1336 404L1336 318L1447 318L1447 505L1558 505L1558 375L1670 375L1670 534L1781 534L1781 375L1892 375L1892 548L2003 548L2003 361L2115 361L2115 462L2226 462L2226 534L2337 534L2337 577L2449 577L2449 505L2560 505L2560 462L2560 388L2560 373L2449 373L2449 474L2337 474L2337 445L2226 445L2226 373L2115 373L2115 258L2003 258L2003 402L1892 402L1892 301L1781 301L1781 460L1670 460L1670 229L1558 229L1558 402L1447 402L1447 201L1336 201L1336 316L1224 316L1224 359L1113 359L1113 201L1002 201L1002 417L890 417L890 532L779 532L779 229L668 229L668 244L557 244L557 345L445 345L445 330L334 330L334 388L223 388L223 373L111 373L111 359L0 359Z" fill="#35cd9d"></path><path d="M0 764L111 764L111 649L223 649L223 663L334 663L334 764L445 764L445 735L557 735L557 591L668 591L668 663L779 663L779 764L890 764L890 779L1002 779L1002 577L1113 577L1113 692L1224 692L1224 577L1336 577L1336 505L1447 505L1447 764L1558 764L1558 620L1670 620L1670 707L1781 707L1781 620L1892 620L1892 721L2003 721L2003 591L2115 591L2115 591L2226 591L2226 735L2337 735L2337 779L2449 779L2449 721L2560 721L2560 750L2560 460L2560 503L2449 503L2449 575L2337 575L2337 532L2226 532L2226 460L2115 460L2115 359L2003 359L2003 546L1892 546L1892 373L1781 373L1781 532L1670 532L1670 373L1558 373L1558 503L1447 503L1447 316L1336 316L1336 402L1224 402L1224 460L1113 460L1113 345L1002 345L1002 503L890 503L890 604L779 604L779 345L668 345L668 359L557 359L557 474L445 474L445 460L334 460L334 517L223 517L223 445L111 445L111 503L0 503Z" fill="#54d78b"></path><path d="M0 879L111 879L111 822L223 822L223 779L334 779L334 923L445 923L445 851L557 851L557 721L668 721L668 750L779 750L779 851L890 851L890 908L1002 908L1002 692L1113 692L1113 865L1224 865L1224 721L1336 721L1336 649L1447 649L1447 851L1558 851L1558 764L1670 764L1670 822L1781 822L1781 721L1892 721L1892 908L2003 908L2003 735L2115 735L2115 735L2226 735L2226 851L2337 851L2337 865L2449 865L2449 879L2560 879L2560 937L2560 748L2560 719L2449 719L2449 777L2337 777L2337 733L2226 733L2226 589L2115 589L2115 589L2003 589L2003 719L1892 719L1892 618L1781 618L1781 705L1670 705L1670 618L1558 618L1558 762L1447 762L1447 503L1336 503L1336 575L1224 575L1224 690L1113 690L1113 575L1002 575L1002 777L890 777L890 762L779 762L779 661L668 661L668 589L557 589L557 733L445 733L445 762L334 762L334 661L223 661L223 647L111 647L111 762L0 762Z" fill="#78e074"></path><path d="M0 1124L111 1124L111 1167L223 1167L223 1167L334 1167L334 1211L445 1211L445 1095L557 1095L557 1211L668 1211L668 1167L779 1167L779 1211L890 1211L890 1254L1002 1254L1002 1095L1113 1095L1113 1239L1224 1239L1224 1182L1336 1182L1336 1153L1447 1153L1447 1153L1558 1153L1558 1139L1670 1139L1670 1153L1781 1153L1781 1095L1892 1095L1892 1153L2003 1153L2003 1182L2115 1182L2115 1081L2226 1081L2226 1110L2337 1110L2337 1153L2449 1153L2449 1124L2560 1124L2560 1167L2560 935L2560 877L2449 877L2449 863L2337 863L2337 849L2226 849L2226 733L2115 733L2115 733L2003 733L2003 906L1892 906L1892 719L1781 719L1781 820L1670 820L1670 762L1558 762L1558 849L1447 849L1447 647L1336 647L1336 719L1224 719L1224 863L1113 863L1113 690L1002 690L1002 906L890 906L890 849L779 849L779 748L668 748L668 719L557 719L557 849L445 849L445 921L334 921L334 777L223 777L223 820L111 820L111 877L0 877Z" fill="#9fe75a"></path><path d="M0 1283L111 1283L111 1340L223 1340L223 1311L334 1311L334 1369L445 1369L445 1326L557 1326L557 1369L668 1369L668 1311L779 1311L779 1355L890 1355L890 1369L1002 1369L1002 1311L1113 1311L1113 1355L1224 1355L1224 1326L1336 1326L1336 1311L1447 1311L1447 1311L1558 1311L1558 1340L1670 1340L1670 1297L1781 1297L1781 1355L1892 1355L1892 1369L2003 1369L2003 1326L2115 1326L2115 1311L2226 1311L2226 1283L2337 1283L2337 1326L2449 1326L2449 1311L2560 1311L2560 1355L2560 1165L2560 1122L2449 1122L2449 1151L2337 1151L2337 1108L2226 1108L2226 1079L2115 1079L2115 1180L2003 1180L2003 1151L1892 1151L1892 1093L1781 1093L1781 1151L1670 1151L1670 1137L1558 1137L1558 1151L1447 1151L1447 1151L1336 1151L1336 1180L1224 1180L1224 1237L1113 1237L1113 1093L1002 1093L1002 1252L890 1252L890 1209L779 1209L779 1165L668 1165L668 1209L557 1209L557 1093L445 1093L445 1209L334 1209L334 1165L223 1165L223 1165L111 1165L111 1122L0 1122Z" fill="#c8ec3b"></path><path d="M0 1441L111 1441L111 1441L223 1441L223 1441L334 1441L334 1441L445 1441L445 1441L557 1441L557 1441L668 1441L668 1441L779 1441L779 1441L890 1441L890 1441L1002 1441L1002 1441L1113 1441L1113 1441L1224 1441L1224 1441L1336 1441L1336 1441L1447 1441L1447 1441L1558 1441L1558 1441L1670 1441L1670 1441L1781 1441L1781 1441L1892 1441L1892 1441L2003 1441L2003 1441L2115 1441L2115 1441L2226 1441L2226 1441L2337 1441L2337 1441L2449 1441L2449 1441L2560 1441L2560 1441L2560 1353L2560 1309L2449 1309L2449 1324L2337 1324L2337 1281L2226 1281L2226 1309L2115 1309L2115 1324L2003 1324L2003 1367L1892 1367L1892 1353L1781 1353L1781 1295L1670 1295L1670 1338L1558 1338L1558 1309L1447 1309L1447 1309L1336 1309L1336 1324L1224 1324L1224 1353L1113 1353L1113 1309L1002 1309L1002 1367L890 1367L890 1353L779 1353L779 1309L668 1309L668 1367L557 1367L557 1324L445 1324L445 1367L334 1367L334 1309L223 1309L223 1338L111 1338L111 1281L0 1281Z" fill="#f5ee0d"></path></svg>