<?xml version="1.0" encoding="utf-8"?>
<svg version="1.1" id="Layer_1" x="0px" y="0px" viewBox="0 0 100 100" style="enable-background:new 0 0 100 100;" xmlns="http://www.w3.org/2000/svg">
  <path d="M14,5c-5,0-9,4-9,9s4,9,9,9s9-4,9-9S19,5,14,5z M14,19c-2.8,0-5-2.2-5-5s2.2-5,5-5s5,2.2,5,5S16.8,19,14,19z M14,29 c-5,0-9,4-9,9s4,9,9,9s9-4,9-9S19,29,14,29z M14,43c-2.8,0-5-2.2-5-5s2.2-5,5-5s5,2.2,5,5S16.8,43,14,43z M14,53c-5,0-9,4-9,9 s4,9,9,9s9-4,9-9S19,53,14,53z M14,67c-2.8,0-5-2.2-5-5s2.2-5,5-5s5,2.2,5,5S16.8,67,14,67z M14,77c-5,0-9,4-9,9s4,9,9,9s9-4,9-9 S19,77,14,77z M14,91c-2.8,0-5-2.2-5-5s2.2-5,5-5s5,2.2,5,5S16.8,91,14,91z M29,14c0-1.1,0.9-2,2-2h62c1.1,0,2,0.9,2,2s-0.9,2-2,2 H31C29.9,16,29,15.1,29,14z M95,38c0,1.1-0.9,2-2,2H31c-1.1,0-2-0.9-2-2s0.9-2,2-2h62C94.1,36,95,36.9,95,38z M95,62 c0,1.1-0.9,2-2,2H31c-1.1,0-2-0.9-2-2s0.9-2,2-2h62C94.1,60,95,60.9,95,62z M95,86c0,1.1-0.9,2-2,2H31c-1.1,0-2-0.9-2-2s0.9-2,2-2 h62C94.1,84,95,84.9,95,86z" style="fill: rgb(245, 238, 13);"/>
</svg>