<?xml version="1.0" encoding="utf-8"?>
<svg version="1.1" id="Layer_1" x="0px" y="0px" viewBox="0 0 100 100" style="enable-background:new 0 0 100 100;" xmlns="http://www.w3.org/2000/svg">
  <g>
    <path d="M7,89c0,2.2,1.8,4,4,4h78c2.2,0,4-1.8,4-4V25H7V89z M48.6,61.1c0-4.7,2.4-8.9,6-11.5c-1.9-2-3-4.6-3-7.5 c0-6.1,4.9-11,11-11c6.1,0,11,4.9,11,11c0,2.9-1.2,5.6-3,7.5c3.6,2.5,6,6.7,6,11.5v6c0,3.3-2.7,6-6,6h-16c-3.3,0-6-2.7-6-6V61.1z M23.7,41.2c0.6-1.7,1.7-2.6,2.2-3c1.5-1.2,3.4-1.7,5.5-1.5c0.4,0,0.8,0.1,1.1,0.2c0.1-0.4,0.2-0.7,0.4-1.1 c0.8-1.9,2.1-3.4,3.8-4.2c0.5-0.2,1.8-0.9,3.6-0.6c2,0.3,3.2,1.4,3.6,1.8c0.7,0.7,1.4,1.8,1.9,2.9c0.9,2.5,0.7,4.6,0.5,6.5 c-0.1,1.1-0.3,2.4-0.7,3.7c-0.5,2.1-1.3,4.2-2.2,6.3c-0.3,0.7-1,1.2-1.8,1.2h-0.1c-2.2-0.1-4.5-0.4-6.6-0.8c-1.7-0.4-3-0.8-3.7-1 c-1.8-0.7-3.8-1.4-5.6-3.4c-0.9-0.9-1.5-2-1.8-3C23.6,44.7,23.1,43.1,23.7,41.2z M17,79h6.3c0.8-2.3,3-4,5.7-4h6 c2.6,0,4.8,1.7,5.7,4H83c1.1,0,2,0.9,2,2c0,1.1-0.9,2-2,2H40.7c-0.8,2.3-3,4-5.7,4h-6c-2.6,0-4.8-1.7-5.7-4H17c-1.1,0-2-0.9-2-2 C15,79.9,15.9,79,17,79z" style="fill: rgb(255, 255, 255);"/>
    <path d="M89,7H11c-2.2,0-4,1.8-4,4v10h86V11C93,8.8,91.2,7,89,7z M17,17c-1.1,0-2-0.9-2-2c0-1.1,0.9-2,2-2s2,0.9,2,2 C19,16.1,18.1,17,17,17z M27,17c-1.1,0-2-0.9-2-2c0-1.1,0.9-2,2-2s2,0.9,2,2C29,16.1,28.1,17,27,17z M37,17c-1.1,0-2-0.9-2-2 c0-1.1,0.9-2,2-2s2,0.9,2,2C39,16.1,38.1,17,37,17z" style="fill: rgb(255, 255, 255);"/>
    <path d="M28.5,45.5c1.1,1.2,2.2,1.7,4.1,2.3c0.5,0.2,1.5,0.5,3.1,0.9c1.5,0.3,3,0.5,4.5,0.7c0.6-1.4,1-2.9,1.4-4.4 c0.3-1.2,0.5-2.3,0.6-3.2c0.2-1.9,0.3-3.2-0.3-4.7c-0.4-0.9-0.8-1.4-0.9-1.5c-0.2-0.2-0.7-0.6-1.4-0.7c-0.6-0.1-1.1,0.1-1.4,0.3 c-0.8,0.4-1.4,1.1-1.8,2c-0.4,0.9-0.3,1.7-0.2,2.3c0.1,0.8-0.2,1.6-0.9,2c-0.7,0.4-1.6,0.4-2.2-0.1c-0.5-0.3-1.2-0.7-2.2-0.8 c-0.1,0-0.3,0-0.4,0c-0.9,0-1.6,0.2-2.2,0.7c-0.2,0.2-0.7,0.5-0.9,1.1c-0.2,0.6,0,1.2,0.1,1.5C27.6,44.2,27.8,44.8,28.5,45.5z"/>
    <path d="M54.6,69.1h16c1.1,0,2-0.9,2-2v-6c0-3.9-2.3-7.3-5.6-8.9c-1.4,0.6-2.9,0.9-4.4,0.9s-3.1-0.3-4.5-0.9 c-3.3,1.6-5.5,5-5.5,8.9v6C52.6,68.2,53.5,69.1,54.6,69.1z"/>
    <path d="M29,83h6c1.1,0,2-0.9,2-2c0-1.1-0.9-2-2-2h-6c-1.1,0-2,0.9-2,2C27,82.1,27.9,83,29,83z"/>
    <circle cx="62.6" cy="42.1" r="7"/>
  </g>
</svg>