<?xml version="1.0" encoding="utf-8"?>
<!-- Generator: Adobe Illustrator 21.0.2, SVG Export Plug-In . SVG Version: 6.00 Build 0)  -->
<svg version="1.1" id="Layer_1" xmlns="http://www.w3.org/2000/svg" xmlns:xlink="http://www.w3.org/1999/xlink" x="0px" y="0px"
	 viewBox="0 0 100 100" style="enable-background:new 0 0 100 100;" xml:space="preserve">
<path d="M50,5C25.2,5,5,25.2,5,50c0,24.8,20.2,45,45,45c24.8,0,45-20.2,45-45C95,25.2,74.8,5,50,5z M50,91C27.4,91,9,72.6,9,50
	S27.4,9,50,9s41,18.4,41,41S72.6,91,50,91z M87,50c0,20.4-16.6,37-37,37c-1.1,0-2-0.9-2-2s0.9-2,2-2c18.2,0,33-14.8,33-33
	c0-1.1,0.9-2,2-2S87,48.9,87,50z M17,50c0,1.1-0.9,2-2,2s-2-0.9-2-2c0-20.4,16.6-37,37-37c1.1,0,2,0.9,2,2s-0.9,2-2,2
	C31.8,17,17,31.8,17,50z M50,75c13.8,0,25-11.2,25-25c0-1.1,0.9-2,2-2s2,0.9,2,2c0,16-13,29-29,29c-1.1,0-2-0.9-2-2S48.9,75,50,75z
	 M50,25c-13.8,0-25,11.2-25,25c0,1.1-0.9,2-2,2s-2-0.9-2-2c0-16,13-29,29-29c1.1,0,2,0.9,2,2S51.1,25,50,25z M66,50
	c0-8.8-7.2-16-16-16s-16,7.2-16,16s7.2,16,16,16S66,58.8,66,50z M38,50c0-6.6,5.4-12,12-12c6.6,0,12,5.4,12,12c0,6.6-5.4,12-12,12
	C43.4,62,38,56.6,38,50z M56,50c0-3.3-2.7-6-6-6s-6,2.7-6,6s2.7,6,6,6S56,53.3,56,50z M48,50c0-1.1,0.9-2,2-2c1.1,0,2,0.9,2,2
	c0,1.1-0.9,2-2,2C48.9,52,48,51.1,48,50z"/>
</svg>
