<?xml version="1.0" standalone="no"?><svg xmlns="http://www.w3.org/2000/svg" viewBox="0 0 1440 320"><path fill="#F5EE0D" fill-opacity="1" d="M0,96L0,288L65.5,288L65.5,32L130.9,32L130.9,96L196.4,96L196.4,288L261.8,288L261.8,288L327.3,288L327.3,128L392.7,128L392.7,256L458.2,256L458.2,64L523.6,64L523.6,288L589.1,288L589.1,32L654.5,32L654.5,160L720,160L720,160L785.5,160L785.5,32L850.9,32L850.9,160L916.4,160L916.4,320L981.8,320L981.8,128L1047.3,128L1047.3,192L1112.7,192L1112.7,32L1178.2,32L1178.2,160L1243.6,160L1243.6,128L1309.1,128L1309.1,192L1374.5,192L1374.5,96L1440,96L1440,0L1374.5,0L1374.5,0L1309.1,0L1309.1,0L1243.6,0L1243.6,0L1178.2,0L1178.2,0L1112.7,0L1112.7,0L1047.3,0L1047.3,0L981.8,0L981.8,0L916.4,0L916.4,0L850.9,0L850.9,0L785.5,0L785.5,0L720,0L720,0L654.5,0L654.5,0L589.1,0L589.1,0L523.6,0L523.6,0L458.2,0L458.2,0L392.7,0L392.7,0L327.3,0L327.3,0L261.8,0L261.8,0L196.4,0L196.4,0L130.9,0L130.9,0L65.5,0L65.5,0L0,0L0,0Z"></path></svg>