<?xml version="1.0" standalone="no"?>
<!DOCTYPE svg PUBLIC "-//W3C//DTD SVG 20010904//EN"
 "http://www.w3.org/TR/2001/REC-SVG-20010904/DTD/svg10.dtd">
<svg version="1.0" xmlns="http://www.w3.org/2000/svg"
 width="1733.000000pt" height="335.000000pt" viewBox="0 0 1733.000000 335.000000"
 preserveAspectRatio="xMidYMid meet">

<g transform="translate(0.000000,335.000000) scale(0.100000,-0.100000)"
fill="#000000" stroke="none">
<path d="M0 1675 l0 -1675 8665 0 8665 0 0 1675 0 1675 -8665 0 -8665 0 0
-1675z m17150 0 l0 -1495 -8490 0 -8490 0 0 1495 0 1495 8490 0 8490 0 0
-1495z"/>
<path d="M940 1820 l0 -830 175 0 175 0 0 55 c0 30 3 55 6 55 3 0 28 -20 56
-44 71 -65 141 -89 258 -90 103 -1 169 16 250 62 327 187 356 691 54 917 -86
64 -150 87 -270 92 -125 7 -187 -9 -279 -72 -36 -25 -67 -45 -70 -45 -3 0 -5
164 -5 365 l0 365 -175 0 -175 0 0 -830z m829 15 c74 -34 151 -112 189 -192
23 -49 27 -71 27 -148 0 -77 -4 -98 -28 -150 -37 -79 -114 -156 -191 -192 -53
-24 -73 -28 -151 -28 -77 1 -99 5 -152 29 -77 35 -153 113 -191 193 -23 50
-27 71 -27 148 0 78 4 99 29 152 45 99 150 187 253 213 65 16 175 5 242 -25z"/>
<path d="M1555 1668 c-66 -23 -125 -107 -125 -178 0 -43 29 -107 61 -137 97
-89 245 -58 300 62 68 148 -81 307 -236 253z"/>
<path d="M2290 2594 c-79 -34 -123 -101 -123 -184 0 -61 17 -101 60 -142 128
-122 333 -35 333 142 0 142 -143 239 -270 184z"/>
<path d="M5640 2594 c-56 -24 -99 -73 -116 -131 -14 -48 -14 -58 0 -106 33
-114 157 -176 264 -132 163 69 163 301 0 370 -47 19 -103 19 -148 -1z"/>
<path d="M6040 2165 l0 -155 -60 0 -60 0 0 -145 0 -145 60 0 60 0 0 -365 0
-365 175 0 175 0 0 365 0 365 105 0 105 0 0 145 0 145 -105 0 -105 0 0 155 0
155 -175 0 -175 0 0 -155z"/>
<path d="M2974 2035 c-217 -47 -345 -222 -305 -417 25 -117 90 -167 281 -214
58 -15 117 -33 132 -40 52 -27 45 -102 -12 -131 -60 -30 -186 -8 -296 52 l-60
33 -64 -121 -63 -120 24 -18 c30 -23 144 -66 224 -85 80 -18 245 -18 320 1
208 53 315 178 315 368 0 73 -4 88 -30 134 -50 87 -113 124 -293 169 -87 21
-112 32 -124 51 -23 34 -7 73 37 96 43 22 135 17 212 -14 28 -11 52 -18 53
-17 2 2 28 53 59 115 l55 112 -47 15 c-133 44 -300 57 -418 31z"/>
<path d="M6934 2035 c-217 -47 -345 -223 -305 -417 24 -115 93 -167 281 -214
58 -15 117 -33 132 -40 52 -27 45 -102 -12 -131 -60 -30 -186 -8 -296 52 l-61
33 -63 -121 -63 -121 23 -15 c87 -58 249 -101 384 -101 168 0 290 43 380 132
66 67 96 140 96 236 0 86 -13 132 -53 183 -45 59 -115 94 -253 129 -147 38
-180 68 -139 127 34 49 141 54 246 13 28 -12 53 -19 54 -18 2 2 28 53 59 115
l55 112 -47 15 c-133 44 -300 57 -418 31z"/>
<path d="M12195 2034 c-269 -57 -454 -270 -455 -521 0 -243 139 -438 370 -520
61 -21 98 -27 200 -30 154 -6 243 11 355 66 182 90 295 271 295 471 0 148 -48
267 -150 371 -143 146 -388 211 -615 163z m265 -318 c129 -65 166 -241 77
-358 -50 -65 -106 -89 -197 -85 -61 2 -83 8 -117 30 -55 35 -90 89 -105 160
-31 145 80 277 232 277 48 0 77 -7 110 -24z"/>
<path d="M13445 2034 c-113 -24 -227 -85 -304 -162 -103 -104 -151 -219 -151
-362 0 -239 141 -437 370 -516 102 -36 291 -45 404 -20 269 60 446 270 446
528 0 146 -49 265 -150 369 -143 146 -388 211 -615 163z m266 -317 c57 -30
103 -92 119 -158 25 -103 -26 -216 -120 -266 -38 -21 -56 -24 -121 -21 -62 2
-83 8 -117 31 -54 35 -89 90 -104 160 -10 48 -9 64 5 110 20 64 67 120 122
147 59 28 159 27 216 -3z"/>
<path d="M3890 2025 c-200 -55 -345 -199 -395 -391 -63 -244 55 -504 278 -610
144 -68 279 -79 433 -33 l74 22 0 148 0 148 -49 -25 c-64 -34 -153 -42 -216
-20 -69 23 -110 58 -140 121 -24 48 -27 64 -23 128 4 94 40 157 112 202 45 27
57 30 135 30 70 0 94 -4 128 -23 23 -12 45 -22 48 -22 3 0 4 66 3 147 l-3 147
-50 20 c-68 26 -257 32 -335 11z"/>
<path d="M10063 2026 c-83 -21 -163 -67 -228 -131 -211 -209 -222 -579 -24
-778 171 -171 473 -191 638 -42 l41 37 0 -83 c0 -107 -13 -151 -57 -200 -81
-89 -253 -94 -326 -9 l-34 40 -197 0 -197 0 6 -22 c62 -210 259 -342 531 -355
251 -12 472 85 568 250 57 96 59 124 63 725 l4 552 -180 0 -181 0 0 -51 0 -50
-43 35 c-74 61 -148 88 -246 92 -50 2 -107 -2 -138 -10z m199 -227 c145 -30
250 -154 252 -299 1 -129 -67 -241 -181 -296 -80 -39 -186 -39 -266 0 -191 93
-242 340 -102 495 47 52 95 81 159 97 66 16 75 16 138 3z"/>
<path d="M10129 1627 c-53 -36 -79 -82 -79 -142 0 -94 71 -165 165 -165 94 0
165 71 165 165 0 94 -71 165 -165 165 -38 0 -61 -6 -86 -23z"/>
<path d="M8543 2016 c-54 -17 -100 -46 -142 -90 -19 -20 -39 -36 -43 -36 -4 0
-8 27 -8 60 l0 60 -175 0 -175 0 0 -510 0 -510 175 0 175 0 0 293 c0 310 5
349 47 406 33 43 78 61 151 61 72 0 118 -26 147 -85 19 -37 20 -64 23 -357 l3
-318 175 0 175 0 -3 393 c-3 385 -3 393 -26 442 -41 89 -124 160 -222 189 -65
19 -217 20 -277 2z"/>
<path d="M11553 2011 c-65 -22 -125 -63 -164 -113 -17 -21 -35 -38 -40 -38 -5
0 -9 34 -9 75 l0 75 -175 0 -175 0 0 -510 0 -510 174 0 174 0 4 273 c3 259 4
274 26 322 28 60 55 91 104 116 65 33 179 35 261 4 16 -7 17 5 17 159 l0 166
-72 0 c-43 -1 -94 -8 -125 -19z"/>
<path d="M2190 1500 l0 -510 175 0 175 0 0 510 0 510 -175 0 -175 0 0 -510z"/>
<path d="M4350 1652 c0 -394 3 -422 61 -514 51 -79 146 -136 276 -163 90 -19
317 -19 407 0 153 32 263 112 308 223 22 56 23 67 26 435 l3 377 -175 0 -175
0 -3 -322 c-3 -305 -4 -325 -24 -358 -68 -117 -260 -117 -328 0 -20 33 -21 53
-24 358 l-3 322 -175 0 -174 0 0 -358z"/>
<path d="M5540 1500 l0 -510 175 0 175 0 0 510 0 510 -175 0 -175 0 0 -510z"/>
<path d="M14123 1983 c8 -16 126 -245 262 -510 l247 -483 117 0 116 0 229 440
c126 242 232 440 236 440 4 0 100 -167 214 -370 l207 -370 -175 -325 -174
-325 198 0 198 0 50 93 c191 357 728 1360 747 1395 l24 42 -205 0 -204 0 -131
-261 c-73 -146 -134 -258 -139 -253 -5 5 -67 122 -139 259 l-130 250 -336 0
-335 0 -122 -257 c-66 -142 -124 -255 -128 -253 -4 2 -60 119 -126 260 l-118
255 -198 0 -199 0 14 -27z"/>
</g>
</svg>
