<?xml version="1.0" encoding="utf-8"?>
<!-- Generator: Adobe Illustrator 21.0.2, SVG Export Plug-In . SVG Version: 6.00 Build 0)  -->
<svg version="1.1" id="Layer_1" xmlns="http://www.w3.org/2000/svg" xmlns:xlink="http://www.w3.org/1999/xlink" x="0px" y="0px"
	 viewBox="0 0 100 100" style="enable-background:new 0 0 100 100;" xml:space="preserve">
<path d="M94.4,15.6l-10-10c-0.8-0.8-2-0.8-2.8,0l-36,36c-0.1,0.1-0.2,0.2-0.3,0.3c0,0-0.1,0.1-0.1,0.2c0,0.1-0.1,0.1-0.1,0.2
	c0,0.1,0,0.1-0.1,0.2c0,0.1,0,0.1-0.1,0.2c0,0.1,0,0.3,0,0.4v10c0,1.1,0.9,2,2,2h10c0.1,0,0.3,0,0.4,0c0.1,0,0.1,0,0.2-0.1
	c0.1,0,0.1,0,0.2-0.1c0.1,0,0.1-0.1,0.2-0.1c0,0,0.1,0,0.1-0.1c0.1-0.1,0.2-0.2,0.3-0.3l36-36C95.2,17.6,95.2,16.4,94.4,15.6z
	 M85,22.2L77.8,15L83,9.8l7.2,7.2L85,22.2z M49,43.8l26-26l7.2,7.2l-26,26H49V43.8z M86,42v51c0,1.1-0.9,2-2,2H7c-1.1,0-2-0.9-2-2
	V16c0-1.1,0.9-2,2-2h51c1.1,0,2,0.9,2,2s-0.9,2-2,2H9v73h73V42c0-1.1,0.9-2,2-2S86,40.9,86,42z"/>
</svg>
