<?xml version="1.0" encoding="utf-8"?>
<svg version="1.1" id="Layer_1" x="0px" y="0px" viewBox="0 0 100 100" style="enable-background:new 0 0 100 100;" xmlns="http://www.w3.org/2000/svg">
  <path d="M85,40H60V15c0-5.51-4.49-10-10-10c-5.51,0-10,4.49-10,10v25H15C9.49,40,5,44.49,5,50c0,5.51,4.49,10,10,10h25v25 c0,5.51,4.49,10,10,10c5.51,0,10-4.49,10-10V60h25c5.51,0,10-4.49,10-10C95,44.49,90.51,40,85,40z M85,56H58c-1.1,0-2,0.9-2,2v27 c0,3.31-2.69,6-6,6s-6-2.69-6-6V58c0-1.1-0.9-2-2-2H15c-3.31,0-6-2.69-6-6s2.69-6,6-6h27c1.1,0,2-0.9,2-2V15c0-3.31,2.69-6,6-6 s6,2.69,6,6v27c0,1.1,0.9,2,2,2h27c3.31,0,6,2.69,6,6S88.31,56,85,56z" style="fill: rgb(245, 238, 13);"/>
</svg>