<?xml version="1.0" encoding="utf-8"?>
<svg version="1.1" id="Layer_1" x="0px" y="0px" viewBox="0 0 100 100" style="enable-background:new 0 0 100 100;" xmlns="http://www.w3.org/2000/svg">
  <path d="M95,50c0,1.1-0.9,2-2,2H11.83l24.59,24.59c0.78,0.78,0.78,2.05,0,2.83C36.02,79.8,35.51,80,35,80s-1.02-0.2-1.41-0.59 l-28-28c-0.09-0.09-0.18-0.2-0.25-0.31c-0.03-0.05-0.05-0.1-0.08-0.15c-0.03-0.06-0.07-0.12-0.1-0.19c-0.03-0.07-0.04-0.13-0.06-0.2 c-0.02-0.06-0.04-0.11-0.05-0.17c-0.05-0.26-0.05-0.52,0-0.78c0.01-0.06,0.03-0.11,0.05-0.17c0.02-0.07,0.04-0.14,0.06-0.2 c0.03-0.07,0.07-0.13,0.1-0.19c0.03-0.05,0.05-0.1,0.08-0.15c0.07-0.11,0.16-0.21,0.25-0.31l28-28c0.78-0.78,2.05-0.78,2.83,0 c0.78,0.78,0.78,2.05,0,2.83L11.83,48H93C94.1,48,95,48.9,95,50z" style="fill: rgb(245, 238, 13);"/>
</svg>