<?xml version="1.0" encoding="utf-8"?>
<svg version="1.1" id="Layer_1" x="0px" y="0px" viewBox="0 0 100 100" style="enable-background:new 0 0 100 100;" xmlns="http://www.w3.org/2000/svg">
  <path d="M50,5C25.2,5,5,25.2,5,50c0,24.8,20.2,45,45,45c24.8,0,45-20.2,45-45C95,25.2,74.8,5,50,5z M50,91C27.4,91,9,72.6,9,50 S27.4,9,50,9s41,18.4,41,41S72.6,91,50,91z M67.2,44.8L67.2,44.8L45,31.8c-1.9-1.1-4.1-1.1-6,0c-1.9,1.1-3,3-3,5.2v26 c0,2.2,1.1,4.1,3,5.2c0.9,0.5,2,0.8,3,0.8c1,0,2.1-0.3,3-0.8l22.1-13c1.9-1.1,3-3,3-5.2C70.1,47.9,69,45.9,67.2,44.8z M65.1,51.7 L43,64.7c-0.9,0.5-1.7,0.2-2,0c-0.3-0.2-1-0.7-1-1.7V37c0-1,0.7-1.6,1-1.7c0.2-0.1,0.5-0.3,1-0.3c0.3,0,0.6,0.1,1,0.3l22.1,13 c0,0,0,0,0,0c0.9,0.5,1,1.4,1,1.7S66,51.2,65.1,51.7z" style="fill: rgb(37, 193, 169);"/>
</svg>