<?xml version="1.0" encoding="utf-8"?>
<svg version="1.1" id="Layer_1" x="0px" y="0px" viewBox="0 0 100 100" style="enable-background:new 0 0 100 100;" xmlns="http://www.w3.org/2000/svg">
  <path d="M95,61c0,1.1-0.9,2-2,2h-1h-1c-4.41,0-8-3.59-8-8v-1v-8c0-2.76-2.24-5-5-5s-5,2.24-5,5v40c0,4.96-4.04,9-9,9s-9-4.04-9-9V14 c0-2.76-2.24-5-5-5s-5,2.24-5,5v72c0,4.96-4.04,9-9,9s-9-4.04-9-9V46c0-2.76-2.24-5-5-5s-5,2.24-5,5v8v1c0,4.41-3.59,8-8,8H8H7 c-1.1,0-2-0.9-2-2s0.9-2,2-2h1h1c2.21,0,4-1.79,4-4v-1v-8c0-4.96,4.04-9,9-9s9,4.04,9,9v40c0,2.76,2.24,5,5,5s5-2.24,5-5V14 c0-4.96,4.04-9,9-9c4.96,0,9,4.04,9,9v72c0,2.76,2.24,5,5,5s5-2.24,5-5V46c0-4.96,4.04-9,9-9s9,4.04,9,9v8v1c0,2.21,1.79,4,4,4h1h1 C94.1,59,95,59.9,95,61z" style="fill: rgb(245, 238, 13);"/>
</svg>