<?xml version="1.0" encoding="utf-8"?>
<svg viewBox="0 0 100 100" style="enable-background:new 0 0 100 100;" xmlns="http://www.w3.org/2000/svg">
  <path d="M83.3,68.5c2.8-2.2,4.7-5.6,4.7-9.5c0-6.6-5.4-12-12-12c-5.2,0-9.7,3.3-11.3,8c0.2-1,0.3-2,0.3-3c0-8.3-6.7-15-15-15 s-15,6.7-15,15c0,1,0.1,2,0.3,3c-1.6-4.7-6.1-8-11.3-8c-6.6,0-12,5.4-12,12c0,3.8,1.8,7.3,4.7,9.5C9.8,71.3,5,78.1,5,86v2 c0,1.1,0.9,2,2,2h86c1.1,0,2-0.9,2-2v-2C95,78.1,90.2,71.3,83.3,68.5z M76,51c4.4,0,8,3.6,8,8c0,4.4-3.6,8-8,8s-8-3.6-8-8 C68,54.6,71.6,51,76,51z M68.7,68.5c-0.6,0.2-1.1,0.5-1.7,0.8c-2.3-2.3-5.1-4.1-8.2-5.1c2.5-1.8,4.4-4.4,5.4-7.4 C64.1,57.5,64,58.2,64,59C64,62.8,65.8,66.3,68.7,68.5z M50,41c6.1,0,11,4.9,11,11s-4.9,11-11,11s-11-4.9-11-11S43.9,41,50,41z M36,59c0-0.8-0.1-1.5-0.2-2.3c1,3,2.9,5.6,5.4,7.4c-3.1,1.1-5.9,2.8-8.2,5.1c-0.5-0.3-1.1-0.6-1.7-0.8C34.2,66.3,36,62.8,36,59z M16,59c0-4.4,3.6-8,8-8s8,3.6,8,8c0,4.4-3.6,8-8,8S16,63.4,16,59z M27,84v2H9c0-8.3,6.7-15,15-15c2.3,0,4.5,0.5,6.5,1.5 C28.3,75.8,27,79.8,27,84z M69,86H31v-2c0-9.4,7.6-17,17-17h4c9.4,0,17,7.6,17,17V86z M73,86v-2c0-4.2-1.3-8.2-3.5-11.5 c2-0.9,4.1-1.5,6.5-1.5c8.3,0,15,6.7,15,15H73z M40.6,20.4c-0.8-0.8-0.8-2,0-2.8c0.8-0.8,2-0.8,2.8,0l4.6,4.6V12c0-1.1,0.9-2,2-2 s2,0.9,2,2v10.2l4.6-4.6c0.8-0.8,2-0.8,2.8,0c0.8,0.8,0.8,2,0,2.8l-8,8C51,28.8,50.5,29,50,29s-1-0.2-1.4-0.6L40.6,20.4z M29.7,28.5 c-0.8-0.7-1-2-0.3-2.8s2-1,2.8-0.3l6,5c0.8,0.7,1,2,0.3,2.8c-0.4,0.5-1,0.7-1.5,0.7c-0.5,0-0.9-0.2-1.3-0.5L29.7,28.5z M25.2,36.6 c0.5-1,1.7-1.4,2.7-0.9l4,2c1,0.5,1.4,1.7,0.9,2.7c-0.4,0.7-1.1,1.1-1.8,1.1c-0.3,0-0.6-0.1-0.9-0.2l-4-2 C25.1,38.8,24.7,37.6,25.2,36.6z M61.5,33.3c-0.7-0.8-0.6-2.1,0.3-2.8l6-5c0.8-0.7,2.1-0.6,2.8,0.3s0.6,2.1-0.3,2.8l-6,5 C63.9,33.8,63.5,34,63,34C62.4,34,61.9,33.8,61.5,33.3z M68.1,37.7l4-2c1-0.5,2.2-0.1,2.7,0.9c0.5,1,0.1,2.2-0.9,2.7l-4,2 c-0.3,0.1-0.6,0.2-0.9,0.2c-0.7,0-1.4-0.4-1.8-1.1C66.7,39.4,67.1,38.2,68.1,37.7z" style="fill: rgb(245, 238, 13);"/>
</svg>