<?xml version="1.0" encoding="utf-8"?>
<svg viewBox="0 0 100 100" style="enable-background:new 0 0 100 100;" xmlns="http://www.w3.org/2000/svg">
  <path d="M93,5H7C5.9,5,5,5.9,5,7v86c0,1.1,0.9,2,2,2h86c1.1,0,2-0.9,2-2V7C95,5.9,94.1,5,93,5z M91,91H9V9h82V91z" style="fill: rgb(245, 238, 13);"/>
  <path d="M 83.937 67.659 L 78.412 67.659 L 78.412 57.678 C 78.412 56.833 77.702 56.142 76.834 56.142 L 51.579 56.142 L 51.579 47.697 L 62.628 47.697 C 63.496 47.697 64.206 47.006 64.206 46.161 L 64.206 44.626 C 64.206 39.021 60.734 34.107 55.762 31.957 C 58.05 30.268 59.471 27.658 59.471 24.664 C 59.471 19.596 55.209 15.45 50 15.45 C 44.792 15.45 40.53 19.596 40.53 24.664 C 40.53 27.658 42.029 30.268 44.239 31.957 C 39.267 34.107 35.795 39.021 35.795 44.626 L 35.795 46.161 C 35.795 47.006 36.505 47.697 37.373 47.697 L 48.422 47.697 L 48.422 56.142 L 23.167 56.142 C 22.299 56.142 21.589 56.833 21.589 57.678 L 21.589 67.659 L 16.064 67.659 C 15.196 67.659 14.486 68.35 14.486 69.195 L 14.486 83.014 C 14.486 83.859 15.196 84.55 16.064 84.55 L 30.27 84.55 C 31.138 84.55 31.849 83.859 31.849 83.014 L 31.849 69.195 C 31.849 68.35 31.138 67.659 30.27 67.659 L 24.746 67.659 L 24.746 59.213 L 48.422 59.213 L 48.422 67.659 L 42.898 67.659 C 42.029 67.659 41.319 68.35 41.319 69.195 L 41.319 83.014 C 41.319 83.859 42.029 84.55 42.898 84.55 L 57.103 84.55 C 57.971 84.55 58.682 83.859 58.682 83.014 L 58.682 69.195 C 58.682 68.35 57.971 67.659 57.103 67.659 L 51.579 67.659 L 51.579 59.213 L 75.255 59.213 L 75.255 67.659 L 69.731 67.659 C 68.863 67.659 68.152 68.35 68.152 69.195 L 68.152 83.014 C 68.152 83.859 68.863 84.55 69.731 84.55 L 83.937 84.55 C 84.805 84.55 85.515 83.859 85.515 83.014 L 85.515 69.195 C 85.515 68.35 84.805 67.659 83.937 67.659 Z M 43.687 24.664 C 43.687 21.285 46.528 18.521 50 18.521 C 53.473 18.521 56.314 21.285 56.314 24.664 C 56.314 28.042 53.473 30.806 50 30.806 C 46.528 30.806 43.687 28.042 43.687 24.664 Z M 50 33.877 C 56.077 33.877 61.049 38.714 61.049 44.626 L 38.952 44.626 C 38.952 38.714 43.924 33.877 50 33.877 Z M 28.692 81.479 L 17.643 81.479 L 17.643 70.73 L 28.692 70.73 L 28.692 81.479 Z M 55.525 81.479 L 44.476 81.479 L 44.476 70.73 L 55.525 70.73 L 55.525 81.479 Z M 82.358 81.479 L 71.309 81.479 L 71.309 70.73 L 82.358 70.73 L 82.358 81.479 Z" style="fill: rgb(245, 238, 13);"/>
</svg>