<?xml version="1.0" encoding="utf-8"?>
<svg version="1.1" id="Layer_1" x="0px" y="0px" viewBox="0 0 100 100" style="enable-background:new 0 0 100 100;" xmlns="http://www.w3.org/2000/svg">
  <path d="M43.3,64.9v-2.3c0-10.6-8.6-19.2-19.2-19.2C13.6,43.5,5,52,5,62.6c0,2.7,0.6,5.4,1.7,7.9c0.8,1.8,2,3.2,3.1,4.6 c0.4,0.5,0.8,0.9,1.2,1.4c1.3,1.7,2.3,3.5,2.8,5.3c0.7,2.4,0.8,4.9,0.8,7c0,1.1,0.9,2,2,2h14.1c1.1,0,2-0.9,2-2 c0-2.2,1.8-4.1,4.1-4.1h0.5c3.3,0,6-2.7,6-6v-4.1c1.4-0.1,2.7-1,3.3-2.3c0.7-1.4,0.4-3.1-0.6-4.3L43.3,64.9z M41.3,70.7 c-1.1,0-2,0.9-2,2v6.1c0,1.1-0.9,2-2,2h-0.5c-3.7,0-6.9,2.6-7.8,6.1H18.5c-0.1-1.9-0.3-4-0.9-6.1c-0.7-2.3-1.8-4.5-3.5-6.7 c-0.4-0.5-0.8-1-1.2-1.5c-1-1.2-2-2.4-2.6-3.7C9.5,66.9,9,64.7,9,62.6c0-8.4,6.8-15.2,15.2-15.2c8.4,0,15.2,6.8,15.2,15.2v3 c0,0.5,0.2,0.9,0.5,1.3l3.2,3.8H41.3z M75.8,43.5c-10.6,0-19.2,8.6-19.2,19.2v2.3L54,68.1c-1,1.2-1.3,2.9-0.6,4.3 c0.6,1.3,1.9,2.2,3.3,2.3v4.1c0,3.3,2.7,6,6,6h0.5c2.2,0,4.1,1.8,4.1,4.1c0,1.1,0.9,2,2,2h14.1c1.1,0,2-0.9,2-2c0-2.1,0.1-4.6,0.8-7 c0.5-1.8,1.5-3.6,2.8-5.3c0.4-0.5,0.8-1,1.2-1.4c1.1-1.4,2.3-2.8,3.1-4.6c1.1-2.5,1.7-5.2,1.7-7.9C95,52,86.4,43.5,75.8,43.5z M89.7,68.8c-0.6,1.3-1.6,2.5-2.6,3.7c-0.4,0.5-0.8,1-1.3,1.5c-1.6,2.1-2.8,4.4-3.5,6.7c-0.6,2.1-0.8,4.2-0.9,6.1H71 c-0.9-3.5-4-6.1-7.8-6.1h-0.5c-1.1,0-2-0.9-2-2v-6.1c0-1.1-0.9-2-2-2l-1.7,0l3.2-3.7c0.3-0.4,0.5-0.8,0.5-1.3v-3 c0-8.4,6.8-15.2,15.2-15.2c8.4,0,15.2,6.8,15.2,15.2C91,64.8,90.5,66.9,89.7,68.8z M19,37.2h22c3.3,0,6-2.7,6-6v-6h6v6 c0,3.3,2.7,6,6,6h22c3.3,0,6-2.7,6-6v-16c0-3.3-2.7-6-6-6H59c-3.3,0-6,2.7-6,6v6h-6v-6c0-3.3-2.7-6-6-6H19c-3.3,0-6,2.7-6,6v16 C13,34.5,15.7,37.2,19,37.2z M57,15.2c0-1.1,0.9-2,2-2h22c1.1,0,2,0.9,2,2v16c0,1.1-0.9,2-2,2H59c-1.1,0-2-0.9-2-2v-6h8 c1.1,0,2-0.9,2-2s-0.9-2-2-2h-8V15.2z M17,15.2c0-1.1,0.9-2,2-2h22c1.1,0,2,0.9,2,2v6h-8c-1.1,0-2,0.9-2,2s0.9,2,2,2h8v6 c0,1.1-0.9,2-2,2H19c-1.1,0-2-0.9-2-2V15.2z" style="fill: rgb(245, 238, 13);"/>
</svg>