<?xml version="1.0" encoding="utf-8"?>
<svg version="1.1" id="Layer_1" x="0px" y="0px" viewBox="0 0 100 100" style="enable-background:new 0 0 100 100;" xmlns="http://www.w3.org/2000/svg">
  <path d="M70,36c-1.21,0-2.35,0.31-3.34,0.85C65.75,34.04,63.11,32,60,32c-1.21,0-2.35,0.31-3.34,0.85C55.75,30.04,53.11,28,50,28 c-1.07,0-2.09,0.25-3,0.68V12c0-3.86-3.14-7-7-7s-7,3.14-7,7v21.18C27.33,34.14,23,39.07,23,45v17.41c0,2.03,0.52,4.05,1.51,5.83 L33,83.52V89c0,3.31,2.69,6,6,6h23c3.31,0,6-2.69,6-6v-5.65l7.58-21.06c0.94-2.62,1.42-5.35,1.42-8.13V43C77,39.14,73.86,36,70,36z M37,12c0-1.65,1.35-3,3-3s3,1.35,3,3v21.74c-3.44-0.89-6-4.02-6-7.74V12z M64,89c0,1.1-0.9,2-2,2H39c-1.1,0-2-0.9-2-2v-4h27V89z M73,54.16c0,2.32-0.4,4.59-1.18,6.77L64.59,81H36.18l-8.17-14.71C27.35,65.11,27,63.77,27,62.41V45c0-3.72,2.56-6.85,6-7.74V50 c0,1.1,0.9,2,2,2s2-0.89,2-2V34.92c1.65,1.48,3.72,2.51,6,2.9V40v2c0,6.62,5.38,12,12,12c4.41,0,8,3.59,8,8c0,1.1,0.9,2,2,2 s2-0.9,2-2c0-6.62-5.38-12-12-12c-4.41,0-8-3.59-8-8v-2v-5c0-1.65,1.35-3,3-3s3,1.35,3,3v4v3c0,1.1,0.9,2,2,2s2-0.9,2-2v-3 c0-1.65,1.35-3,3-3s3,1.35,3,3v4v1v2c0,1.1,0.9,2,2,2s2-0.9,2-2v-2v-1c0-1.65,1.35-3,3-3s3,1.35,3,3V54.16z" style="fill: rgb(245, 238, 13);"/>
</svg>