<?xml version="1.0" encoding="utf-8"?>
<svg version="1.1" id="Layer_1" x="0px" y="0px" viewBox="0 0 100 100" style="enable-background:new 0 0 100 100;" xmlns="http://www.w3.org/2000/svg">
  <g>
    <path d="M74.35,45.33c4.53-0.06,9.04-1.8,12.49-5.25c3.4-3.4,5.27-7.92,5.27-12.73s-1.87-9.33-5.27-12.73 c-3.4-3.4-7.92-5.27-12.73-5.27c-4.8,0-9.32,1.87-12.72,5.27c-3.34,3.34-5.2,7.77-5.26,12.48c-1.01-0.44-2.1-0.68-3.23-0.68 c-2.14,0-4.14,0.83-5.66,2.34c-2.65,2.65-3.03,6.71-1.18,9.79l-26,28.47c-1.48,1.62-1.88,3.82-1.29,5.78l-2.64,2.63 c-1.32,1.32-2.05,3.08-2.05,4.95c0,1.19,0.29,2.32,0.84,3.33l-4.45,4.45c-0.78,0.78-0.78,2.05,0,2.83 c0.39,0.39,0.91,0.58,1.42,0.58s1.02-0.19,1.41-0.58l4.45-4.45c1.04,0.56,2.18,0.84,3.33,0.84c1.79,0,3.59-0.68,4.95-2.05 l2.64-2.64c0.57,0.17,1.14,0.29,1.73,0.29c1.45,0,2.89-0.53,4.05-1.58l28.47-25.99c1.23,0.75,2.64,1.15,4.12,1.15 c2.14,0,4.15-0.83,5.66-2.34C75.1,51.82,75.65,48.26,74.35,45.33z M23.2,82.5c-1.17,1.17-3.07,1.17-4.24,0.01c0,0,0,0,0-0.01 c-0.57-0.56-0.88-1.32-0.88-2.12s0.31-1.55,0.88-2.12l2.12-2.12l4.24,4.24L23.2,82.5z M31.75,78.45c-0.79,0.72-2,0.69-2.76-0.06 l-5.91-5.91c-0.76-0.76-0.79-1.97-0.07-2.76l25.71-28.16l3.43,3.42l7.76,7.76L31.75,78.45z M69.87,51.39 c-1.51,1.51-4.14,1.51-5.65,0L50.07,37.25c-1.56-1.56-1.56-4.1,0-5.66c0.76-0.75,1.76-1.17,2.83-1.17s2.07,0.42,2.83,1.17 l14.14,14.14C71.43,47.29,71.43,49.83,69.87,51.39z M70.7,40.91L60.55,30.75c-0.28-1.1-0.44-2.24-0.44-3.4 c0-3.74,1.46-7.26,4.11-9.9c2.64-2.64,6.16-4.1,9.89-4.1c3.74,0,7.26,1.46,9.9,4.1c2.65,2.64,4.1,6.16,4.1,9.9s-1.45,7.26-4.1,9.9 C80.41,40.85,75.32,42.06,70.7,40.91z" style="fill: rgb(245, 238, 13);"/>
    <path d="M47.24,51.39L43,55.63c-0.78,0.79-0.78,2.05,0,2.83c0.39,0.39,0.9,0.59,1.42,0.59c0.51,0,1.02-0.2,1.41-0.59l4.24-4.24 c0.78-0.78,0.78-2.05,0-2.83C49.29,50.61,48.03,50.61,47.24,51.39z" style="fill: rgb(245, 238, 13);"/>
    <path d="M94.67,68.89c-0.62-0.92-1.86-1.17-2.78-0.56l-6,4C85.34,72.7,85,73.33,85,74v7.68C84.09,81.25,83.08,81,82,81 c-3.86,0-7,3.14-7,7s3.14,7,7,7s7-3.14,7-7V75.07l5.11-3.41C95.03,71.05,95.28,69.81,94.67,68.89z M82,91c-1.65,0-3-1.35-3-3 c0-1.66,1.35-3,3-3c1.66,0,3,1.34,3,3C85,89.65,83.66,91,82,91z" style="fill: rgb(245, 238, 13);"/>
    <path d="M19,23V7c0-1.11-0.89-2-2-2c-1.1,0-2,0.89-2,2v9.68C14.09,16.25,13.08,16,12,16c-3.86,0-7,3.14-7,7s3.14,7,7,7 S19,26.86,19,23z M9,23c0-1.66,1.35-3,3-3c1.66,0,3,1.34,3,3c0,1.65-1.34,3-3,3C10.35,26,9,24.65,9,23z" style="fill: rgb(245, 238, 13);"/>
  </g>
</svg>