<?xml version="1.0" encoding="utf-8"?>
<svg viewBox="0 0 100 100" style="enable-background:new 0 0 100 100;" xmlns="http://www.w3.org/2000/svg">
  <path d="M94.4,67.1c-3.4-3.4-8.2-4.8-12.7-4c0.9-4.6,0.1-9.5-2.4-13.8L66,26.7c0.6-0.9,1-2,1-3.2c0-2.5-1.5-4.6-3.6-5.5l7-9.3 c0.5-0.6,0.5-1.4,0.2-2.1c-0.3-0.7-1-1.1-1.8-1.1h-9.9c-1.9,0-3.7,0.8-4.9,2.1c-1.3-1.3-3-2.1-4.9-2.1h-9.9c-0.8,0-1.5,0.4-1.8,1.1 c-0.3,0.7-0.3,1.5,0.2,2.1l7,9.3c-2.1,0.9-3.6,3-3.6,5.5c0,1.2,0.3,2.3,1,3.2L28.8,49.3c-1.6,2.6-2.4,5.5-2.7,8.4 c-4.7,0.6-8.3,2.3-10.2,4.8H11c-3.3,0-6,2.7-6,6v20c0,3.3,2.7,6,6,6h50.6c1.4,0,2.7-0.5,3.7-1.3l28.9-23.1c0.4-0.4,0.7-0.9,0.8-1.5 S94.8,67.5,94.4,67.1z M15,90.5h-4c-1.1,0-2-0.9-2-2v-20c0-1.1,0.9-2,2-2h4V90.5z M43.2,9.5h5.9c1.6,0,2.9,1.4,2.9,3.1 c0,1.1,0.9,2,2,2s2-0.9,2-2c0-1.7,1.3-3.1,2.9-3.1h5.9l-6,8h-9.5L43.2,9.5z M63,23.5c0,1.1-0.9,2-2,2H47c-1.1,0-2-0.9-2-2 c0-1.1,0.9-2,2-2h14C62.1,21.5,63,22.4,63,23.5z M32.2,51.3l12.9-22.1c0.6,0.2,1.2,0.3,1.9,0.3h14c0.7,0,1.3-0.1,1.9-0.3l12.9,22.1 c2.4,4.2,2.9,9,1.3,13.4c-0.7,0.4-1.3,0.8-1.9,1.3l-11.8,9.4c-0.4,0-0.9,0.1-1.3,0.1h-4.3c2.6-2.5,4.2-6.1,4.2-10c0-1.1-0.9-2-2-2 H43.4c-2.5-3.7-7.5-6-13.2-6C30.4,55.4,31.1,53.3,32.2,51.3z M62.8,90.1c-0.4,0.3-0.8,0.4-1.2,0.4H19V65c1.5-2.2,5.7-3.5,11-3.5 c4.7,0,9,2,10.5,4.9c0.3,0.7,1,1.1,1.8,1.1h15.6c-0.9,4.6-5,8-9.8,8h-8c-1.1,0-2,0.9-2,2c0,1.1,0.9,2,2,2h24c0.5,0,0.9-0.2,1.2-0.4 l12.4-9.9c3.6-2.9,8.5-3,12.2-0.7L62.8,90.1z M57,50.5c0-1.1-0.9-2-2-2h-2c-3.3,0-6-2.7-6-6c0-3,2.2-5.4,5-5.9v-0.1c0-1.1,0.9-2,2-2 s2,0.9,2,2v0.1c2.8,0.5,5,2.9,5,5.9c0,1.1-0.9,2-2,2s-2-0.9-2-2c0-1.1-0.9-2-2-2h-2c-1.1,0-2,0.9-2,2c0,1.1,0.9,2,2,2h2 c3.3,0,6,2.7,6,6c0,3-2.2,5.4-5,5.9v0.1c0,1.1-0.9,2-2,2s-2-0.9-2-2v-0.1c-2.8-0.5-5-2.9-5-5.9c0-1.1,0.9-2,2-2s2,0.9,2,2 c0,1.1,0.9,2,2,2h2C56.1,52.5,57,51.6,57,50.5z" style="fill: rgb(245, 238, 13);"/>
</svg>