<?xml version="1.0" encoding="utf-8"?>
<svg version="1.1" id="Layer_1" x="0px" y="0px" viewBox="0 0 100 100" style="enable-background:new 0 0 100 100;" xmlns="http://www.w3.org/2000/svg">
  <g>
    <path d="M89,16.2h-4v-6c0-1-0.7-1.8-1.7-2C71.7,6.3,59.6,9,50,15.8C40.4,9,28.3,6.3,16.7,8.2c-1,0.2-1.7,1-1.7,2v6h-4 c-3.3,0-6,2.7-6,6v46c0,3.3,2.7,6,6,6h55.9l7,14.2c0.8,1.7,2.3,2.9,4,3.5c0.7,0.2,1.5,0.4,2.2,0.4c1.1,0,2.1-0.2,3.1-0.7 c1.7-0.8,2.9-2.3,3.5-4c0.6-1.8,0.5-3.7-0.4-5.4l-4-8H89c3.3,0,6-2.7,6-6v-46C95,18.9,92.3,16.2,89,16.2z M52,19.2 c8.4-5.9,18.8-8.6,29-7.3v50c-1.6-0.2-3.2-0.3-4.7-0.3l-2.9-5.8c1.3-1.6,2.3-3.4,3-5.3c1.5-4.3,1.1-8.9-0.9-13 c-2-4.1-5.5-7.1-9.8-8.6c-4.3-1.4-8.9-1.1-13,0.9c-0.2,0.1-0.5,0.3-0.7,0.4V19.2z M11,70.2c-1.1,0-2-0.9-2-2v-46c0-1.1,0.9-2,2-2h4 v44c0,0.6,0.3,1.1,0.7,1.5c0.4,0.4,1,0.5,1.6,0.4c8.8-1.5,17.8,0,25.7,4H11z M48,68.4c-7.2-4.5-15.5-6.8-24-6.8 c-1.7,0-3.4,0.1-5,0.3v-50c10.2-1.3,20.6,1.4,29,7.3v14c-4.8,5-6.3,12.7-3,19.3c0.8,1.6,1.8,3,3,4.2V68.4z M48.6,50.8 c-3.2-6.4-0.5-14.2,5.9-17.4c1.8-0.9,3.8-1.3,5.8-1.3c1.4,0,2.8,0.2,4.2,0.7c3.3,1.1,5.9,3.4,7.5,6.5c1.5,3.1,1.8,6.6,0.7,9.9 c-1.1,3.3-3.4,6-6.5,7.5C59.6,59.9,51.8,57.2,48.6,50.8z M52,59.9c2.5,1.4,5.4,2.1,8.3,2.1c0.2,0,0.4,0,0.6,0l0.9,1.9 c-3.4,1.1-6.7,2.6-9.8,4.5V59.9z M57,70.2c2.1-1.1,4.3-2,6.6-2.7l1.3,2.7H57z M82.9,84c0.7,1.5,0.1,3.3-1.3,4 c-0.7,0.4-1.5,0.4-2.3,0.2c-0.8-0.3-1.4-0.8-1.7-1.5L65,61.4c1-0.3,1.9-0.6,2.8-1.1c0.9-0.5,1.8-1,2.6-1.6L82.9,84z M91,68.2 c0,1.1-0.9,2-2,2h-8.5l-2.2-4.5c1.5,0.1,2.9,0.2,4.4,0.5c0.6,0.1,1.2-0.1,1.6-0.4c0.5-0.4,0.7-0.9,0.7-1.5v-44h4c1.1,0,2,0.9,2,2 V68.2z" style="fill: rgb(245, 238, 13);"/>
    <path d="M64,45.2c0,1.1,0.9,2,2,2s2-0.9,2-2c0-4.4-3.6-8-8-8c-1.1,0-2,0.9-2,2c0,1.1,0.9,2,2,2C62.2,41.2,64,43,64,45.2z" style="fill: rgb(245, 238, 13);"/>
  </g>
</svg>