<?xml version="1.0" encoding="utf-8"?>
<!-- Generator: Adobe Illustrator 23.0.1, SVG Export Plug-In . SVG Version: 6.00 Build 0)  -->
<svg version="1.1" id="Layer_1" xmlns="http://www.w3.org/2000/svg" xmlns:xlink="http://www.w3.org/1999/xlink" x="0px" y="0px"
	 viewBox="0 0 100 100" style="enable-background:new 0 0 100 100;" xml:space="preserve">
<path d="M93,48h-8c0-3.3-2.7-6-6-6H63c-3.3,0-6,2.7-6,6H7c-1.1,0-2,0.9-2,2c0,1.1,0.9,2,2,2h50c0,3.3,2.7,6,6,6h16c3.3,0,6-2.7,6-6
	h8c1.1,0,2-0.9,2-2C95,48.9,94.1,48,93,48z M81,52c0,1.1-0.9,2-2,2H63c-1.1,0-2-0.9-2-2v-4c0-1.1,0.9-2,2-2h16c1.1,0,2,0.9,2,2V52z
	 M93,70H43c0-3.3-2.7-6-6-6H21c-3.3,0-6,2.7-6,6H7c-1.1,0-2,0.9-2,2c0,1.1,0.9,2,2,2h8c0,3.3,2.7,6,6,6h16c3.3,0,6-2.7,6-6h50
	c1.1,0,2-0.9,2-2C95,70.9,94.1,70,93,70z M39,74c0,1.1-0.9,2-2,2H21c-1.1,0-2-0.9-2-2v-4c0-1.1,0.9-2,2-2h16c1.1,0,2,0.9,2,2V74z
	 M7,30h8c0,3.3,2.7,6,6,6h16c3.3,0,6-2.7,6-6h50c1.1,0,2-0.9,2-2c0-1.1-0.9-2-2-2H43c0-3.3-2.7-6-6-6H21c-3.3,0-6,2.7-6,6H7
	c-1.1,0-2,0.9-2,2C5,29.1,5.9,30,7,30z M19,26c0-1.1,0.9-2,2-2h16c1.1,0,2,0.9,2,2v4c0,1.1-0.9,2-2,2H21c-1.1,0-2-0.9-2-2V26z"/>
</svg>
