<?xml version="1.0" encoding="utf-8"?>
<svg version="1.1" id="Layer_1" x="0px" y="0px" viewBox="0 0 100 100" style="enable-background:new 0 0 100 100;" xmlns="http://www.w3.org/2000/svg">
  <g>
    <path d="M40.7,23.1l8.1,6.4c0.4,0.3,0.8,0.4,1.2,0.4s0.9-0.1,1.2-0.4l8.1-6.4c4-3.2,5.5-7.6,4.2-11.6c-1.1-3.4-4-5.8-7.3-6 C54,5.3,51.7,6,50,7.5c-1.6-1.3-3.6-2.1-5.7-2.1c-0.2,0-0.4,0-0.5,0c-3.3,0.2-6.2,2.6-7.3,6C35.1,15.5,36.7,19.8,40.7,23.1z M40.3,12.7c0.6-1.8,2.1-3.2,3.7-3.3c0.1,0,0.2,0,0.3,0c1.6,0,3.2,0.8,4.1,2.1c0.4,0.5,1,0.8,1.6,0.8s1.3-0.3,1.6-0.8 c1-1.4,2.6-2.2,4.4-2.1c1.6,0.1,3.1,1.4,3.7,3.3c0.8,2.5-0.3,5.1-2.9,7.3L50,25.3L43.2,20C40.5,17.8,39.5,15.1,40.3,12.7z" style="fill: rgb(245, 238, 13);"/>
    <path d="M50,34.6c-1.1,0-2,0.9-2,2v56c0,1.1,0.9,2,2,2s2-0.9,2-2v-56C52,35.5,51.1,34.6,50,34.6z" style="fill: rgb(245, 238, 13);"/>
    <path d="M22.1,48c-0.9-0.6-2.2-0.4-2.8,0.5c-0.6,0.9-0.4,2.2,0.5,2.8C20.1,51.4,38,64,38,92.6c0,1.1,0.9,2,2,2s2-0.9,2-2 C42,61.9,22.9,48.5,22.1,48z" style="fill: rgb(245, 238, 13);"/>
    <path d="M17,44.6c1.1,0,2-0.9,2-2s-0.9-2-2-2h-3v-3c0-1.1-0.9-2-2-2s-2,0.9-2,2v3H7c-1.1,0-2,0.9-2,2s0.9,2,2,2h3v3 c0,1.1,0.9,2,2,2s2-0.9,2-2v-3H17z" style="fill: rgb(245, 238, 13);"/>
    <path d="M80.1,51.3c0.9-0.6,1.1-1.9,0.5-2.8c-0.6-0.9-1.9-1.1-2.8-0.5C77.1,48.5,58,61.9,58,92.6c0,1.1,0.9,2,2,2s2-0.9,2-2 C62,64.1,80,51.4,80.1,51.3z" style="fill: rgb(245, 238, 13);"/>
    <path d="M93,40.6h-3v-3c0-1.1-0.9-2-2-2s-2,0.9-2,2v3h-3c-1.1,0-2,0.9-2,2s0.9,2,2,2h3v3c0,1.1,0.9,2,2,2s2-0.9,2-2v-3h3 c1.1,0,2-0.9,2-2S94.1,40.6,93,40.6z" style="fill: rgb(245, 238, 13);"/>
    <path d="M36.7,30.6c-1.3-0.1-2.6,0.3-3.7,1c-1-0.7-2.2-1-3.4-1c-0.1,0-0.2,0-0.4,0c-2.2,0.1-4.3,1.8-5,4.1 c-0.9,2.7,0.1,5.6,2.8,7.7l4.7,3.7c0.4,0.3,0.8,0.4,1.2,0.4s0.9-0.1,1.2-0.4l4.7-3.7c2.6-2.1,3.6-5,2.7-7.7 C41,32.4,39,30.8,36.7,30.6z M36.5,39.3L33,42.1l-3.5-2.7c-1.3-1.1-1.8-2.3-1.5-3.4c0.2-0.7,0.9-1.3,1.4-1.3h0.1 c0.7,0,1.3,0.3,1.7,0.9c0.4,0.5,1,0.8,1.6,0.8s1.3-0.3,1.6-0.8c0.4-0.6,1-0.9,1.7-0.9h0.1c0.6,0,1.2,0.6,1.4,1.3 C38.3,37.1,37.8,38.3,36.5,39.3z" style="fill: rgb(245, 238, 13);"/>
    <path d="M17,26.6c3.3,0,6-2.7,6-6s-2.7-6-6-6s-6,2.7-6,6S13.7,26.6,17,26.6z M17,18.6c1.1,0,2,0.9,2,2s-0.9,2-2,2s-2-0.9-2-2 S15.9,18.6,17,18.6z" style="fill: rgb(245, 238, 13);"/>
    <path d="M76,24.5l4.7,3.7c0.4,0.3,0.8,0.4,1.2,0.4s0.9-0.1,1.2-0.4l4.7-3.7c2.6-2.1,3.6-5,2.7-7.7c-0.8-2.3-2.8-4-5-4.1 c-1.3-0.1-2.6,0.3-3.7,1c-1-0.7-2.2-1-3.4-1c-0.1,0-0.2,0-0.4,0c-2.2,0.1-4.3,1.8-5,4.1C72.4,19.4,73.4,22.3,76,24.5z M77.1,18 c0.2-0.7,0.9-1.3,1.4-1.3h0.1c0.7,0,1.3,0.3,1.7,0.9c0.4,0.5,1,0.8,1.6,0.8s1.3-0.3,1.6-0.8c0.4-0.6,1-0.9,1.7-0.9h0.1 c0.6,0,1.2,0.6,1.4,1.3c0.4,1.1-0.2,2.3-1.4,3.4L82,24.1l-3.5-2.7C77.2,20.3,76.7,19.1,77.1,18z" style="fill: rgb(245, 238, 13);"/>
    <path d="M80,61.6c-3.3,0-6,2.7-6,6s2.7,6,6,6s6-2.7,6-6S83.3,61.6,80,61.6z M80,69.6c-1.1,0-2-0.9-2-2s0.9-2,2-2s2,0.9,2,2 S81.1,69.6,80,69.6z" style="fill: rgb(245, 238, 13);"/>
    <circle cx="65" cy="43.6" r="2" style="fill: rgb(245, 238, 13);"/>
    <circle cx="19" cy="67.6" r="2" style="fill: rgb(245, 238, 13);"/>
  </g>
</svg>