<?xml version="1.0" encoding="utf-8"?>
<!-- Generator: Adobe Illustrator 23.0.1, SVG Export Plug-In . SVG Version: 6.00 Build 0)  -->
<svg version="1.1" id="Layer_1" xmlns="http://www.w3.org/2000/svg" xmlns:xlink="http://www.w3.org/1999/xlink" x="0px" y="0px"
	 viewBox="0 0 100 100" style="enable-background:new 0 0 100 100;" xml:space="preserve">
<path d="M79.41,36.41C79.02,36.8,78.51,37,78,37s-1.02-0.2-1.41-0.59L52,11.83V93c0,1.1-0.9,2-2,2s-2-0.9-2-2V11.83L23.41,36.41
	c-0.78,0.78-2.05,0.78-2.83,0c-0.78-0.78-0.78-2.05,0-2.83l28-28c0.09-0.09,0.2-0.18,0.31-0.25C48.94,5.3,49,5.28,49.05,5.25
	c0.06-0.03,0.12-0.07,0.18-0.1c0.07-0.03,0.14-0.04,0.21-0.07c0.05-0.02,0.11-0.04,0.16-0.05C49.74,5.01,49.87,5,50,5c0,0,0,0,0,0
	c0,0,0,0,0.01,0c0.13,0,0.26,0.01,0.38,0.04c0.06,0.01,0.12,0.03,0.18,0.05c0.07,0.02,0.13,0.03,0.2,0.06
	c0.07,0.03,0.13,0.07,0.2,0.1c0.05,0.03,0.1,0.05,0.15,0.08c0.11,0.07,0.21,0.16,0.31,0.25l28,28C80.2,34.37,80.2,35.63,79.41,36.41
	z"/>
</svg>
